<svg id="Calque_1" data-name="Calque 1" xmlns="http://www.w3.org/2000/svg" viewBox="0 0 221.31 346.15"><defs><style>.cls-1{fill:#eee;}</style></defs><path class="cls-1" d="M259.11,361.82c-.07.23-.2.6-.52.71a.91.91,0,0,1-.71-.13c-4.15-2.59-5.56-3.27-8.17-5.23a1.19,1.19,0,0,1-.31-1.08,46.17,46.17,0,0,0-.13-16.46c-1-5.47-1.68-13.12-7.78-20.75-8.42-10.53-15.74-14.51-26.85-22.27-46.21-32.26-72.49-51.21-144-98.27-1.5-1-2.68-1.78-3.71-2.48-2.31-1.57-3.51-2.4-5.8-4-3.42-2.35-1.77-1.27-4.5-3.25-4.59-3.11-4.06-3.26-2.25-6.05,5.11-7.89,21.54-28.69,45.83-47.37h0c18.88-11.66,30.14-19.23,48.63-24.29,22.35-6.13,45.18-9.15,68.2-5.79,1.88.28,6.09.75,14.37,2.45,20,4.12,25,7.73,29.17,10.22,5.54,3.36,4.3,4.08,3.54,10.14-.59,4.71-2.48,3.68-4.63,3.07-3.66-1-7.93-2-15.59-3.65-28-5.92-54.5-1.92-67.08,1-11.93,2.76-31.28,10.7-41.5,17.91-40.1,28.29-28.18,34.6-9,51.68,10.4,9.25,22.58,19.68,33.76,28.06,14,10.48,34.22,25.42,47.6,36.61,20.56,17.21,48.47,34.54,53.08,61.22a104.8,104.8,0,0,1,1.29,15.59c0,.83,0,1.85,0,3.88A72.86,72.86,0,0,1,259.11,361.82Z" transform="translate(-43.52 -103.72)"/><path class="cls-1" d="M49.24,191.76a1,1,0,0,1,.52-.7.85.85,0,0,1,.71.12c4.15,2.6,5.57,3.28,8.17,5.23a1.17,1.17,0,0,1,.31,1.08A46.46,46.46,0,0,0,59.08,214c1,5.47,1.68,13.12,7.78,20.74C75.29,245.23,82.6,249.22,93.71,257c46.22,32.26,72.49,51.21,144,98.27,1.5,1,2.68,1.78,3.7,2.47,2.32,1.58,3.51,2.4,5.8,4,3.42,2.34,1.78,1.26,4.5,3.25,4.59,3.1,4.06,3.26,2.25,6-5.11,7.9-21.53,28.69-45.82,47.38h0c-18.88,11.66-30.15,19.23-48.63,24.29-22.36,6.12-45.19,9.15-68.2,5.78-1.89-.27-6.1-.74-14.37-2.44-20-4.12-25.05-7.74-29.17-10.22-5.55-3.36-4.31-4.08-3.55-10.14.6-4.71,2.48-3.69,4.64-3.08,3.66,1,7.93,2,15.58,3.66,28,5.92,54.5,1.92,67.08-1,11.93-2.77,31.29-10.7,41.5-17.91,40.1-28.29,28.18-34.6,9-51.68-10.4-9.25-22.58-19.69-33.76-28.07-14-10.47-34.22-25.42-47.59-36.61-20.57-17.2-48.47-34.53-53.09-61.22a103.88,103.88,0,0,1-1.28-15.58c0-.83,0-1.85,0-3.89A73.38,73.38,0,0,1,49.24,191.76Z" transform="translate(-43.52 -103.72)"/></svg>