<svg xmlns="http://www.w3.org/2000/svg" viewBox="0 0 254.97 367.09"><path d="M66.34,198.29a3.55,3.55,0,0,1,.59,5.17c-14.48,17.06-8.88,41.76,5.17,56.29A147.72,147.72,0,0,0,90,275.09c19.5,14.56,39.25,28.77,58.82,43.23q32.06,23.7,63.94,47.61c7.6,5.67,15.36,11.16,22.68,17.17,9.53,7.81,10.15,8.67,3.41,18.55-12.93,18.94-26.69,32.49-45.7,46.75a88.06,88.06,0,0,1-19.06,11c-7.22,3-13.34,4.38-22.4,6.18a158.76,158.76,0,0,1-49.6,1.7c-24.94-2.92-48.81-7-72.29-15.65-2.25-.83-6.88-2.81-9-5.12a3.47,3.47,0,0,1-.53-3.62c1.47-3.51,1.6-3.29,4.18-7.53,1.83-3,7.18.1,10.67.78,22.17,4.29,44.13,9.95,66.92,10.07,17,.1,33.58-2.19,48.93-10.39a33.75,33.75,0,0,0,17.11-38c-2.7-11.42-9.42-20.23-18.38-27-23.06-17.5-46.68-34.25-69.8-51.68-22.78-17.18-36.75-39.57-39.71-68.52a117.38,117.38,0,0,1,9.57-60.29c1.15-2.61,2-2.82,4.34-1.35C58.89,192,62.08,195.23,66.34,198.29Z" transform="translate(-20 -101.33)"/><path d="M233.7,375.1a3.5,3.5,0,0,1-1.18-3.38c.94-4.53,1.78-8.5,3.24-15.08,3.91-15.86,1.8-30.78-8.82-43.37-5.31-6.29-12.23-11.35-18.87-16.38q-32.2-24.47-64.76-48.44c-25.45-18.68-51.11-37.06-76.66-55.59-3.63-2.64-7.14-5.46-10.82-8-2-1.41-2.07-2.79-.74-4.65,13-18,27.35-34.61,45.83-47.37,15.09-10.43,30.84-19.42,48.62-24.29,22.36-6.13,45.19-9.15,68.2-5.79,16,2.34,31.73,6.61,47.48,10.41a56.23,56.23,0,0,1,7.45,2.31,3.67,3.67,0,0,1,2.23,4.07,89,89,0,0,1-2.39,10.81,2.65,2.65,0,0,1-3,1.81c-1.79-.32-3.34-.74-5.53-1.27-7.25-1.77-14.46-3.77-21.77-5.22-21.56-4.28-43.15-4.69-64.69.3-11.93,2.76-23.71,5.94-33.93,13.15-20.22,14.26-22.24,40.07-3,57.15,10.4,9.25,22.28,16.85,33.46,25.23,14,10.48,28.39,20.43,41.77,31.62,20.56,17.2,33.88,39.13,38.49,65.81,2.5,14.42,1.31,25.46-1.94,43-.94,4.34-2.93,13.41-4.94,19a2.76,2.76,0,0,1-4.23,1.3C240,379.91,236.14,377.13,233.7,375.1Z" transform="translate(-20 -101.33)"/></svg>