<?xml version="1.0" standalone="no"?>
<!DOCTYPE svg PUBLIC "-//W3C//DTD SVG 20010904//EN"
 "http://www.w3.org/TR/2001/REC-SVG-20010904/DTD/svg10.dtd">
<svg version="1.0" xmlns="http://www.w3.org/2000/svg"
 width="843.000000pt" height="916.000000pt" viewBox="0 0 843.000000 916.000000"
 preserveAspectRatio="xMidYMid meet">

<g transform="translate(0.000000,916.000000) scale(0.100000,-0.100000)"
fill="#000000" stroke="none">
<path d="M0 7070 l0 -2091 63 3 62 3 0 52 c0 59 11 79 20 37 17 -79 21 -89 43
-92 12 -2 22 -7 22 -12 0 -13 -84 -23 -128 -16 -20 3 -47 3 -59 0 -23 -6 -23
-7 -23 -220 0 -118 1 -214 3 -214 1 0 17 4 35 9 28 8 36 6 59 -15 14 -13 32
-24 38 -24 28 0 22 -29 -12 -59 -19 -17 -39 -31 -44 -31 -5 0 -9 -7 -9 -15 0
-19 -24 -19 -44 0 -8 8 -17 15 -20 15 -3 0 -5 -942 -3 -2092 l2 -2093 70 -3
c90 -4 171 6 189 23 7 8 17 11 21 7 3 -4 13 2 21 12 8 11 14 17 14 13 0 -4 14
6 30 21 17 16 30 34 30 41 0 6 6 14 14 17 7 3 26 28 41 55 15 28 33 53 41 56
8 3 14 11 14 19 0 8 7 14 15 14 8 0 15 4 15 9 0 12 57 34 95 36 58 3 59 4 45
20 -9 11 -9 15 -1 15 7 0 9 5 5 12 -4 7 -3 8 4 4 12 -7 52 13 52 26 0 4 -10 4
-23 -1 -15 -6 -26 -4 -35 5 -6 7 -20 11 -30 7 -14 -5 -15 -4 -4 8 12 13 73 19
230 22 27 1 42 6 42 14 0 7 -6 13 -12 14 -7 0 -26 2 -43 4 -16 2 -34 0 -41 -6
-6 -5 -48 -11 -92 -12 -67 -3 -80 -1 -71 10 6 7 8 13 5 13 -4 0 -2 9 4 20 6
11 14 19 18 18 4 -1 20 2 36 7 19 5 39 3 61 -8 38 -18 131 -10 145 13 4 7 12
10 18 7 5 -4 17 2 27 13 18 20 41 28 31 11 -3 -4 7 -7 22 -5 14 1 32 -2 39 -8
7 -6 13 -7 13 -3 0 4 11 0 25 -9 13 -9 36 -16 51 -16 19 0 25 -4 20 -15 -12
-33 15 -13 34 25 23 46 35 52 28 15 -3 -14 -2 -25 2 -25 3 0 6 -26 4 -58 -3
-83 -3 -82 -16 -80 -7 2 -14 -8 -16 -22 -2 -14 -6 -32 -9 -40 -3 -8 -5 -21 -4
-27 1 -7 -2 -13 -7 -13 -11 0 -21 -42 -28 -110 -2 -25 -7 -65 -9 -90 -3 -25
-7 -100 -8 -167 l-3 -123 434 0 c426 1 434 1 429 20 -3 11 -1 23 4 26 5 3 9
-6 9 -20 l0 -26 3215 0 3215 0 0 1001 0 1000 -22 -6 c-13 -4 -33 -17 -45 -28
-20 -17 -26 -19 -45 -8 -16 8 -35 9 -63 2 -22 -5 -31 -9 -19 -10 11 -1 24 -4
28 -9 9 -8 14 -9 56 -11 l30 -1 0 -64 c0 -36 -4 -67 -8 -70 -5 -3 -33 18 -63
47 -30 29 -76 63 -102 76 -26 14 -58 34 -71 46 -13 12 -28 19 -34 17 -6 -2
-22 13 -35 33 -14 20 -29 36 -33 35 -5 -1 -27 3 -49 9 -137 34 -218 51 -280
56 -111 10 -148 23 -354 121 l-66 32 50 -4 c28 -2 73 -6 100 -9 77 -8 160 -14
278 -20 59 -3 140 -10 180 -15 64 -9 124 -14 417 -36 58 -4 71 -3 57 6 -19 12
-53 16 -462 50 -60 5 -121 12 -135 15 -14 2 -88 7 -165 10 -77 3 -186 11 -242
18 -69 9 -106 10 -113 3 -7 -7 -10 -6 -10 2 0 7 -3 11 -7 10 -20 -4 -140 35
-213 69 -30 14 -66 30 -80 37 -14 6 -31 19 -38 29 -18 24 -66 47 -99 47 -62 1
-168 30 -186 51 -10 12 -16 23 -14 25 5 5 291 -26 307 -33 8 -4 40 -8 70 -9
30 -2 143 -9 250 -17 107 -8 243 -18 303 -22 l107 -7 1 -51 c0 -29 4 -70 8
-92 7 -33 9 -25 10 49 l1 89 120 -7 c65 -4 129 -9 142 -11 24 -4 118 -12 286
-24 57 -4 120 -5 140 -1 l37 6 -50 7 c-27 4 -63 9 -80 11 -16 2 -69 7 -118 11
-48 4 -89 11 -92 15 -3 4 -6 50 -7 101 l-3 94 60 -1 c33 0 129 -4 213 -8 138
-8 152 -7 152 8 0 9 -4 16 -9 16 -5 0 -11 9 -14 20 -3 11 -1 20 4 20 4 0 7 6
5 13 -3 6 -7 42 -10 80 -6 56 -4 67 9 67 8 0 15 9 15 20 0 16 -7 20 -30 20
-17 0 -45 7 -62 16 -16 9 -27 11 -24 5 9 -14 12 -13 -164 -11 -80 1 -149 5
-153 9 -5 5 -9 50 -10 102 l-1 94 84 -2 c47 -1 147 -3 223 -5 125 -3 137 -1
137 15 0 10 -8 17 -19 17 -22 0 -31 40 -31 143 0 67 0 67 25 61 22 -5 25 -3
25 19 0 24 -21 42 -35 29 -4 -4 -26 -7 -48 -8 -277 -5 -360 -5 -367 3 -4 4
-10 49 -11 98 l-4 90 180 -3 c99 -1 204 0 233 4 47 5 52 8 52 30 0 19 -5 24
-25 24 -24 0 -25 3 -27 63 -1 34 -2 76 -2 92 -1 26 3 30 27 33 22 3 27 8 27
31 0 40 -36 56 -118 53 -37 -2 -96 -3 -132 -2 -50 0 -61 -3 -47 -11 24 -14 12
-31 -13 -19 -11 6 -29 15 -40 20 -26 13 -30 13 -30 -4 0 -14 -62 -27 -79 -17
-5 4 -12 45 -16 92 l-7 86 68 7 c38 3 125 6 194 7 69 0 146 0 173 0 38 0 47 4
47 18 0 16 -12 18 -112 19 -62 1 -126 2 -143 3 -16 1 -41 -1 -55 -5 -14 -4
-38 -3 -53 3 -17 7 -28 7 -33 0 -3 -5 -28 -9 -55 -8 -39 2 -46 5 -38 16 7 7
20 13 30 13 11 0 19 5 19 11 0 7 -26 10 -77 8 -43 -1 -99 1 -125 5 -27 5 -53
4 -63 -2 -13 -7 -2 -10 44 -15 34 -3 67 -12 75 -20 14 -13 11 -15 -27 -19 -62
-5 -158 3 -152 12 3 4 -11 10 -31 12 -29 3 -35 1 -31 -12 3 -13 -1 -16 -19
-12 -25 5 -25 4 -28 149 -1 31 -14 28 185 37 176 8 280 13 454 22 66 4 146 6
178 5 53 -2 57 0 57 20 0 21 -2 21 -87 15 -49 -3 -159 -9 -245 -12 l-158 -6
-9 23 c-5 13 -8 58 -7 99 l1 75 100 7 c55 3 152 9 215 12 153 9 190 15 190 32
0 10 -14 14 -54 14 l-54 0 -7 73 c-11 117 -9 121 55 127 54 5 55 6 58 38 3 31
2 33 -20 26 -13 -5 -39 -9 -60 -9 -20 0 -34 -3 -31 -7 2 -5 -7 -4 -21 2 -20 7
-33 5 -58 -10 -18 -10 -42 -19 -53 -19 -11 1 -78 -4 -149 -10 -71 -6 -130 -10
-131 -8 -9 11 -14 187 -6 192 6 3 57 8 113 10 132 5 246 14 328 25 36 5 71 10
78 10 6 0 12 9 12 21 0 19 -5 20 -67 17 l-68 -3 -3 89 c-3 99 0 106 58 106 65
1 80 9 80 46 0 29 -3 34 -23 34 -13 0 -27 3 -31 8 -4 4 -29 7 -54 8 -26 0 -63
4 -82 9 -32 8 -34 7 -21 -8 12 -15 11 -17 -11 -17 -13 0 -29 5 -34 10 -7 7
-19 7 -35 1 -26 -9 -112 7 -157 31 -16 8 -25 9 -34 0 -16 -16 -3 -40 24 -44
13 -2 24 -11 26 -22 3 -14 0 -17 -12 -13 -9 4 -16 3 -16 -2 0 -4 -18 -7 -40
-7 -42 0 -41 -1 -45 66 -1 19 -5 43 -10 54 -7 17 -5 18 23 14 18 -2 33 0 35 6
3 7 9 6 20 -2 14 -12 21 -11 46 7 34 24 45 27 38 7 -7 -17 11 -36 34 -36 10 0
33 14 51 30 39 36 45 37 51 8 4 -21 4 -21 6 2 1 24 5 26 52 28 27 1 66 6 86
11 25 7 41 7 49 0 8 -7 14 -6 19 1 5 8 12 6 25 -5 16 -15 17 -13 18 27 1 24
-3 50 -8 58 -5 8 -10 10 -10 4 0 -7 -11 -14 -25 -16 -14 -3 -25 -1 -25 3 0 14
-30 10 -61 -8 -33 -20 -44 -13 -54 35 -5 23 -3 32 6 32 10 0 10 3 2 11 -14 14
3 69 20 66 7 -1 11 3 10 8 -1 6 7 11 17 11 11 0 17 -3 14 -5 -7 -7 99 -31 108
-25 5 3 8 36 8 75 0 55 -3 69 -15 69 -9 0 -18 -7 -21 -15 -4 -9 -11 -15 -18
-14 -6 1 -19 -1 -28 -5 -22 -10 -61 -4 -65 11 -5 14 24 24 92 32 l50 6 3 98
c2 82 0 97 -13 97 -8 0 -15 4 -15 10 0 5 6 7 14 4 12 -4 14 15 15 110 l1 114
-37 -10 c-20 -5 -50 -11 -67 -13 -17 -2 -101 -15 -186 -30 -85 -15 -172 -25
-192 -23 -23 2 -38 -1 -38 -7 0 -6 -9 -11 -20 -12 -13 -1 -18 2 -14 10 5 8 3
8 -7 -1 -18 -16 -29 -15 -29 4 0 8 5 12 10 9 6 -3 10 3 10 13 0 11 9 22 20 25
16 4 20 14 20 46 0 23 -3 42 -7 42 -59 9 -65 8 -60 -12 3 -10 1 -19 -4 -19 -5
0 -9 11 -9 25 0 19 6 25 23 26 12 1 31 3 42 4 119 14 129 14 110 6 -21 -10
-18 -11 28 -15 16 -1 27 3 27 11 0 7 -8 13 -17 13 -25 0 -12 6 27 14 21 3 30
3 21 -3 -19 -12 0 -19 29 -10 14 4 18 7 11 8 -35 2 9 21 69 30 54 7 68 6 85
-7 12 -10 15 -10 8 -2 -19 21 -16 25 25 28 20 1 56 5 80 8 l42 6 0 49 c0 27
-4 49 -10 49 -5 0 -7 -6 -5 -13 7 -17 -67 -40 -77 -24 -6 9 -8 9 -8 0 0 -12
-71 -29 -105 -25 -22 3 -37 21 -30 39 2 6 -1 14 -8 17 -9 3 -8 8 3 15 10 7 11
11 3 11 -8 0 -13 15 -13 40 0 43 6 47 85 54 22 2 52 8 66 14 15 6 30 8 33 5 3
-3 13 0 22 8 10 8 19 13 21 12 1 -2 8 -3 13 -3 7 0 10 417 10 1230 l0 1230
-4215 0 -4215 0 0 -2090z m440 1955 c0 -8 4 -15 9 -15 6 0 10 -29 10 -65 0
-36 2 -74 6 -84 7 -22 -12 -39 -52 -47 -29 -6 -30 -4 -42 43 -7 26 -17 66 -22
88 -6 22 -12 47 -15 56 -5 19 29 37 74 38 22 1 32 -4 32 -14z m5214 -97 c-6
-21 -64 -150 -85 -190 -12 -23 -11 -38 2 -38 5 0 7 5 3 12 -4 7 -3 8 4 4 7 -4
40 5 74 19 203 84 498 153 498 116 0 -13 -31 -24 -62 -22 -38 3 -173 -32 -353
-93 -82 -27 -232 -98 -245 -114 -6 -8 -47 -32 -55 -32 -13 0 -3 23 21 45 14
13 42 59 63 102 33 69 127 213 138 213 3 0 1 -10 -3 -22z m1062 -77 c-3 -5 4
-11 15 -14 23 -6 49 1 49 13 0 9 127 -14 191 -35 26 -9 63 -32 83 -51 31 -30
36 -42 36 -79 0 -60 -31 -108 -104 -162 -101 -75 -338 -175 -465 -198 -16 -3
-67 -14 -113 -24 -46 -11 -101 -22 -123 -25 -22 -3 -74 -10 -115 -16 -86 -12
-403 -16 -470 -6 -135 21 -177 36 -164 58 9 14 24 8 18 -7 -7 -17 21 -21 31
-5 4 6 10 8 15 5 15 -9 50 33 43 52 -5 13 -3 15 11 10 14 -5 17 -3 12 8 -3 9
0 15 9 15 8 0 15 -6 15 -12 0 -9 4 -8 10 2 5 8 7 24 4 34 -5 15 -3 18 10 13 9
-4 16 -2 16 4 0 6 6 6 18 1 21 -12 42 -5 42 14 0 8 7 14 15 14 9 0 19 8 23 18
4 9 14 18 22 20 37 7 101 46 96 59 -4 8 5 18 20 23 15 6 22 14 18 22 -5 8 2 9
27 5 24 -5 30 -4 19 3 -12 8 -11 10 7 10 17 0 24 8 29 35 3 20 4 38 1 41 -11
11 15 62 42 82 35 26 81 39 81 23 0 -6 -5 -11 -10 -11 -6 0 -16 -5 -23 -10 -7
-6 -28 -22 -47 -36 -30 -22 -31 -25 -10 -19 14 4 30 12 37 17 6 5 32 12 57 14
36 4 46 2 46 -9 0 -9 -14 -17 -34 -21 -19 -4 -39 -13 -46 -21 -7 -8 -19 -15
-26 -15 -8 0 -14 -6 -14 -14 0 -12 7 -12 53 0 61 16 107 18 107 4 0 -20 37 -9
50 15 8 15 20 23 27 20 8 -2 12 -1 9 4 -3 5 1 14 9 21 8 7 15 9 15 4 0 -4 6 1
14 11 8 11 19 16 30 12 11 -4 16 -1 16 9 0 15 2 15 25 0 19 -12 30 -14 52 -5
15 6 31 16 36 22 4 7 5 0 1 -15 -8 -34 3 -37 15 -4 7 17 20 25 50 30 23 3 41
11 41 17 0 5 6 7 13 3 8 -5 7 -2 -2 9 -12 15 -12 17 3 11 9 -3 16 -1 16 5 0 6
5 11 11 11 5 0 8 -4 5 -9z m-206 -71 c0 -15 -5 -12 -26 11 -19 22 -19 22 4 10
12 -6 22 -16 22 -21z m30 9 c0 -6 -4 -7 -10 -4 -5 3 -10 11 -10 16 0 6 5 7 10
4 6 -3 10 -11 10 -16z m-920 -454 c0 -8 -4 -15 -10 -15 -5 0 -7 7 -4 15 4 8 8
15 10 15 2 0 4 -7 4 -15z m80 -494 c0 -11 -39 -21 -45 -11 -2 4 -2 10 2 14 10
9 43 7 43 -3z m-10 -61 c-19 -13 -30 -13 -30 0 0 6 10 10 23 10 18 0 19 -2 7
-10z m-77 -21 c7 0 3 -4 -8 -9 -29 -13 -35 -12 -35 6 0 11 5 14 16 10 9 -3 21
-6 27 -7z m-148 -10 c-3 -4 18 -6 47 -4 49 4 51 3 33 -11 -11 -8 -31 -17 -45
-21 -14 -3 -34 -11 -45 -18 -11 -6 -31 -14 -45 -17 -28 -7 -79 -24 -127 -45
-17 -7 -42 -13 -55 -13 -23 0 -48 -16 -48 -31 0 -8 114 -45 170 -55 19 -4 40
-10 45 -14 6 -4 39 -13 75 -19 80 -15 248 -58 275 -70 11 -6 58 -17 105 -26
47 -9 89 -21 94 -26 6 -5 18 -9 29 -9 13 0 18 -6 15 -22 -4 -31 -16 -30 -196
24 -18 5 -29 14 -26 20 4 6 -1 8 -15 3 -12 -4 -21 -2 -21 4 0 6 -5 11 -11 11
-5 0 -7 -4 -4 -10 7 -11 -23 -2 -42 13 -7 5 -19 7 -27 4 -7 -3 -17 -2 -22 3
-5 4 -28 11 -52 14 -24 3 -49 9 -55 13 -14 9 -34 14 -65 17 -13 2 -27 8 -31
15 -5 7 -14 11 -22 10 -8 -2 -32 5 -53 14 -22 10 -46 15 -53 13 -7 -3 -13 -1
-13 4 0 6 -7 10 -15 10 -8 0 -15 4 -15 8 0 5 -16 9 -36 10 -20 1 -42 6 -49 12
-17 14 -180 -4 -191 -21 -3 -5 -14 -9 -26 -9 -14 0 -18 5 -14 16 3 9 6 24 6
35 0 15 7 19 33 19 21 0 28 3 19 9 -11 7 -10 10 3 15 9 3 21 3 26 0 6 -3 21 1
34 10 13 9 32 16 41 16 9 0 28 6 42 14 15 8 54 22 87 31 33 10 70 22 83 26 13
5 33 9 45 9 12 0 29 6 38 13 18 13 81 19 74 6z m-295 -29 c0 -5 -5 -10 -11
-10 -6 0 -25 -6 -42 -14 -32 -14 -112 -40 -155 -49 -14 -3 -22 -1 -19 6 4 14
20 21 92 42 33 9 69 21 80 25 28 12 55 12 55 0z m-260 -80 c0 -14 -66 -42 -92
-38 -35 5 -27 23 12 26 19 2 39 8 45 13 12 12 35 12 35 -1z m-135 -50 c-3 -5
-17 -10 -31 -10 -13 0 -24 5 -24 10 0 6 14 10 31 10 17 0 28 -4 24 -10z m-85
-19 c0 -14 -18 -23 -30 -16 -6 4 -8 11 -5 16 8 12 35 12 35 0z m210 -11 c0 -5
-2 -10 -4 -10 -3 0 -8 5 -11 10 -3 6 -1 10 4 10 6 0 11 -4 11 -10z m-290 -15
c0 -8 -7 -15 -15 -15 -26 0 -18 20 13 29 1 1 2 -6 2 -14z m180 -5 c0 -5 -5
-10 -11 -10 -5 0 -7 5 -4 10 3 6 8 10 11 10 2 0 4 -4 4 -10z m-250 -14 c0 -18
-17 -29 -30 -21 -8 5 -7 11 1 21 15 18 29 18 29 0z m280 4 c0 -5 -4 -10 -10
-10 -5 0 -10 5 -10 10 0 6 5 10 10 10 6 0 10 -4 10 -10z m40 -10 c8 -5 11 -10
5 -10 -5 0 -17 5 -25 10 -8 5 -10 10 -5 10 6 0 17 -5 25 -10z m-390 -20 c0
-13 -7 -20 -20 -20 -19 0 -27 20 -13 33 13 14 33 6 33 -13z m-60 -19 c15 -29
13 -31 -29 -31 -25 0 -41 -5 -45 -15 -3 -8 -13 -15 -23 -15 -10 0 -43 -9 -73
-21 -93 -35 -144 -49 -151 -41 -4 4 -9 16 -11 26 -2 15 8 23 47 38 28 10 58
18 68 18 9 0 25 4 35 9 29 15 136 50 154 50 10 1 22 -8 28 -18z m256 3 c-3 -8
-2 -12 4 -9 5 3 18 1 27 -5 17 -11 17 -11 0 -6 -22 7 -68 -14 -60 -27 3 -5 -7
-6 -26 -2 -19 4 -31 3 -31 -4 0 -6 7 -7 17 -4 11 4 14 3 9 -5 -4 -7 -20 -12
-35 -12 -15 0 -31 -4 -37 -10 -11 -11 -136 -59 -174 -66 -14 -3 -29 -9 -34
-15 -6 -5 -22 -9 -36 -9 -14 0 -30 -4 -35 -9 -14 -13 -73 -2 -79 15 -4 11 1
13 19 8 15 -4 25 -2 25 5 0 6 -8 11 -17 11 -22 0 -12 9 15 13 11 2 30 11 41
21 11 10 26 16 33 14 7 -3 19 1 26 9 7 7 22 13 33 13 11 0 31 7 45 16 13 9 27
14 31 10 3 -3 11 -2 17 4 10 8 51 20 123 35 12 3 32 9 45 14 37 15 61 13 54
-5z m-606 -104 c0 -5 -4 -10 -10 -10 -5 0 -7 -7 -4 -15 4 -9 0 -15 -9 -15 -11
0 -17 30 -8 48 4 7 31 0 31 -8z m-151 -74 c1 -5 -7 -1 -18 10 -12 13 -15 21
-7 26 10 7 24 -13 25 -36z m-67 7 c-6 -2 -9 -10 -6 -15 4 -7 2 -8 -4 -4 -18
11 -14 26 6 25 10 0 12 -3 4 -6z m671 -132 c34 -15 80 -32 101 -35 51 -10 116
-36 116 -47 0 -5 -4 -9 -10 -9 -5 0 -10 3 -10 8 0 4 -19 8 -43 9 l-42 2 28
-15 c15 -8 32 -12 37 -9 6 3 10 1 10 -6 0 -7 -8 -9 -22 -5 -232 68 -238 68
-328 39 -77 -24 -184 -42 -145 -24 l20 10 -20 1 c-11 1 -29 2 -40 1 -15 0 -12
3 10 14 17 8 39 14 50 15 12 0 38 9 60 20 22 11 45 20 51 20 7 0 14 5 16 10 2
6 23 14 48 19 25 5 46 9 48 10 2 1 31 -12 65 -28z m-4013 -72 l38 -11 4 -79
c3 -43 10 -85 17 -93 7 -8 10 -20 6 -26 -4 -6 8 -17 27 -25 18 -7 42 -28 53
-44 11 -17 23 -31 28 -31 4 0 7 -9 7 -20 0 -11 -4 -20 -10 -20 -5 0 -10 -7
-10 -15 0 -9 -7 -18 -15 -21 -21 -8 -20 -78 2 -100 16 -15 16 -17 0 -29 -10
-7 -35 -15 -57 -19 -29 -5 -38 -10 -34 -21 7 -17 40 -20 49 -5 16 26 342 -5
376 -36 45 -41 13 -74 -103 -107 -63 -17 -104 -20 -308 -21 -259 -1 -339 6
-319 30 7 9 21 12 38 8 18 -4 22 -3 13 4 -11 7 -8 11 11 16 30 7 34 47 5 65
-35 21 -115 31 -168 20 l-48 -10 10 -32 c14 -42 27 -57 47 -56 11 0 10 3 -7
11 -12 6 -22 15 -22 20 0 11 17 10 22 -1 2 -5 21 -18 43 -30 l40 -22 -41 5
c-68 8 -120 25 -138 45 -16 18 -17 21 0 53 61 119 158 240 245 304 62 45 85
86 104 186 13 70 35 118 53 118 3 0 22 -5 42 -11z m4270 -19 c0 -5 -2 -10 -4
-10 -3 0 -8 5 -11 10 -3 6 -1 10 4 10 6 0 11 -4 11 -10z m2740 -54 c0 -3 -4
-8 -10 -11 -5 -3 -10 -1 -10 4 0 6 5 11 10 11 6 0 10 -2 10 -4z m-40 -10 c0
-2 -7 -7 -16 -10 -8 -3 -12 -2 -9 4 6 10 25 14 25 6z m-3225 -162 c25 -10 6
-24 -32 -24 -45 0 -113 20 -113 33 0 10 114 2 145 -9z m3022 10 c-3 -3 -12 -4
-19 -1 -8 3 -5 6 6 6 11 1 17 -2 13 -5z m270 -10 c-3 -3 -12 -4 -19 -1 -8 3
-5 6 6 6 11 1 17 -2 13 -5z m33 -22 c0 -13 -12 -22 -22 -16 -10 6 -1 24 13 24
5 0 9 -4 9 -8z m-65 -32 c3 -5 1 -10 -4 -10 -6 0 -11 5 -11 10 0 6 2 10 4 10
3 0 8 -4 11 -10z m789 -2 c-15 -7 -28 -7 -40 0 -14 8 -10 10 22 10 33 0 36 -2
18 -10z m31 -8 c-10 -11 -22 -20 -27 -20 -10 0 24 38 36 39 5 1 1 -8 -9 -19z
m-985 -3 c0 -8 -7 -14 -15 -14 -8 0 -15 6 -15 14 0 7 7 13 15 13 8 0 15 -6 15
-13z m-2310 -32 c0 -12 -29 -3 -34 10 -4 13 -2 14 14 5 11 -6 20 -13 20 -15z
m2270 15 c0 -5 -5 -10 -11 -10 -5 0 -7 5 -4 10 3 6 8 10 11 10 2 0 4 -4 4 -10z
m489 -6 c4 3 12 -4 19 -15 7 -11 8 -19 2 -19 -5 0 -10 5 -10 11 0 5 -4 7 -10
4 -5 -3 -10 -4 -10 -1 0 2 -2 10 -3 18 -2 7 -2 10 0 5 3 -4 8 -5 12 -3z m418
-6 c-3 -8 -6 -5 -6 6 -1 11 2 17 5 13 3 -3 4 -12 1 -19z m-3097 -30 c8 -1 20
-8 25 -15 13 -18 84 -8 92 13 6 16 63 8 79 -12 7 -9 14 -10 21 -3 11 11 42
-25 56 -62 6 -17 59 -27 107 -20 l25 3 -30 13 -30 14 38 -3 c22 -2 37 1 37 8
0 6 5 4 10 -4 6 -10 10 -11 10 -3 0 9 7 10 25 3 16 -6 26 -6 31 1 3 6 13 8 21
5 8 -3 20 -3 26 1 23 14 47 13 47 -2 0 -18 14 -19 42 -4 17 9 20 9 16 -2 -4
-11 3 -13 32 -11 21 2 41 -1 44 -7 4 -6 17 -11 30 -11 13 0 37 -7 54 -16 18
-8 36 -13 42 -9 5 3 10 2 10 -4 0 -5 14 -12 30 -16 17 -4 30 -11 30 -16 0 -5
7 -9 15 -9 8 0 19 -9 25 -20 6 -11 14 -19 18 -19 18 3 33 -2 28 -9 -7 -12 17
-38 43 -47 14 -4 19 -10 13 -14 -7 -4 -2 -14 13 -25 14 -10 25 -23 25 -28 0
-5 16 -25 35 -44 19 -18 35 -39 35 -46 0 -6 6 -4 13 6 12 16 14 16 35 -4 12
-12 27 -18 32 -15 6 3 10 -1 10 -9 0 -9 -5 -16 -12 -16 -6 0 -3 -7 8 -15 10
-8 15 -15 11 -15 -4 0 -2 -10 5 -22 7 -13 12 -26 13 -30 0 -4 6 -13 13 -20 6
-6 12 -22 12 -35 0 -13 5 -23 10 -23 6 0 10 -7 10 -15 0 -8 -4 -15 -10 -15 -5
0 -10 -7 -10 -16 0 -8 5 -12 10 -9 9 6 15 -29 11 -62 -1 -6 3 -14 9 -18 15 -9
12 -28 -4 -22 -9 4 -16 -4 -19 -21 -6 -31 0 -43 12 -23 7 11 11 9 20 -7 8 -16
7 -21 -4 -26 -21 -8 -19 -23 5 -43 25 -21 27 -45 3 -36 -11 4 -14 3 -9 -5 4
-7 14 -12 23 -12 13 0 53 -35 53 -47 0 -6 -38 16 -45 26 -3 5 -18 12 -34 16
-16 3 -37 15 -47 26 -18 20 -40 27 -29 9 4 -6 -7 -10 -25 -10 -18 0 -33 -6
-36 -15 -4 -9 -15 -12 -32 -9 -15 3 -40 0 -57 -7 l-30 -12 25 -7 c21 -7 19 -8
-15 -8 -112 -1 -188 -10 -222 -26 -93 -44 -128 -65 -125 -75 1 -7 -9 -28 -23
-48 -34 -51 -22 -55 20 -7 l34 39 -5 -32 -6 -33 30 16 c25 12 36 13 53 4 12
-7 24 -8 28 -3 20 28 99 44 226 46 33 0 63 5 67 11 4 6 11 6 20 -1 7 -6 21 -9
31 -8 9 2 17 -2 17 -8 0 -8 3 -7 9 1 7 11 9 11 14 -2 5 -12 14 -15 32 -10 20
5 24 3 19 -10 -5 -12 0 -16 18 -16 14 0 38 -14 58 -35 19 -19 30 -35 26 -35
-6 0 28 -56 44 -70 9 -8 12 -32 12 -92 0 -43 4 -58 14 -58 8 0 14 -9 14 -20 0
-11 4 -20 9 -20 14 0 0 41 -15 47 -8 3 -14 10 -14 15 0 6 6 5 15 -2 8 -7 21
-10 30 -7 10 5 17 -5 25 -36 25 -94 43 -156 67 -229 l25 -78 19 23 c18 21 18
19 -2 -36 -15 -43 -18 -61 -10 -71 11 -13 56 -11 76 4 10 8 51 13 196 26 l76
7 7 -82 c4 -44 5 -85 2 -89 -3 -5 -58 -12 -123 -16 -178 -11 -225 -15 -231
-21 -3 -3 0 -22 7 -41 7 -20 9 -39 5 -43 -12 -8 -16 -54 -5 -47 12 8 20 -67 8
-75 -5 -4 -6 -16 -2 -29 6 -19 12 -21 53 -16 26 3 94 8 152 11 58 4 117 8 133
10 26 3 27 1 29 -43 1 -46 1 -96 -1 -118 -1 -14 -142 -7 -156 8 -7 7 1 8 24 3
23 -5 31 -4 27 4 -5 7 -1 9 8 5 12 -4 16 0 16 15 0 26 -21 36 -47 23 -23 -12
-63 2 -63 22 0 10 -10 14 -30 14 -18 -1 -30 -6 -30 -14 0 -10 -6 -11 -22 -5
-12 4 -34 3 -50 -3 -25 -9 -28 -16 -29 -56 -3 -72 -4 -78 -11 -86 -16 -15 -8
-63 12 -74 11 -6 20 -18 19 -28 0 -14 -3 -13 -16 6 -22 32 -36 28 -28 -9 5
-21 4 -29 -3 -25 -15 9 -27 -13 -14 -26 7 -7 7 -16 -1 -29 -9 -15 -9 -24 1
-39 10 -17 10 -20 -4 -20 -9 0 -14 -8 -13 -17 1 -10 0 -21 -1 -25 -1 -5 -4
-20 -6 -35 -11 -84 -17 -113 -25 -113 -5 0 -9 -7 -9 -15 0 -17 -41 -61 -53
-57 -5 1 -6 -2 -3 -7 4 -5 2 -12 -3 -16 -6 -3 -8 -12 -4 -20 3 -9 -1 -15 -11
-15 -9 0 -16 -2 -16 -4 0 -2 -3 -13 -6 -23 -5 -15 -4 -16 6 -3 10 13 11 12 6
-3 -3 -10 -6 -23 -6 -28 0 -5 -9 -9 -20 -9 -28 0 -37 45 -16 80 9 16 16 35 16
44 0 9 4 16 9 16 4 0 6 12 3 26 -3 19 -1 25 7 20 7 -5 11 3 11 23 0 16 5 33
10 36 6 3 10 15 10 26 0 11 3 18 8 16 4 -3 7 21 8 54 0 32 -4 59 -8 59 -11 0
-31 -47 -35 -84 -2 -16 -8 -35 -13 -41 -6 -7 -10 -17 -8 -21 1 -5 -6 -26 -15
-48 -9 -21 -17 -44 -17 -50 0 -6 -9 -17 -20 -24 -11 -7 -20 -20 -20 -30 0 -9
-12 -28 -25 -41 -24 -22 -29 -35 -26 -71 1 -17 -15 -38 -44 -60 -18 -14 -19
-13 -8 1 7 9 10 19 6 22 -3 4 1 7 10 7 10 0 17 7 17 16 0 14 -3 14 -15 4 -8
-7 -15 -9 -16 -4 -1 5 -4 -2 -8 -16 -4 -14 -13 -24 -19 -22 -7 1 -12 -7 -12
-18 0 -11 -4 -20 -8 -20 -5 0 -17 -18 -28 -40 -10 -22 -25 -40 -32 -40 -7 0
-16 -10 -21 -22 -5 -14 -10 -17 -15 -10 -4 7 -12 12 -18 12 -7 0 -7 -4 1 -13
15 -19 -7 -74 -32 -81 -16 -4 -19 -11 -14 -35 5 -24 3 -29 -8 -24 -10 3 -15
-1 -15 -11 0 -9 -7 -19 -15 -22 -8 -4 -15 -16 -15 -28 0 -17 -2 -19 -11 -6 -8
11 -9 5 -5 -25 3 -22 3 -34 0 -27 -3 6 -10 10 -15 6 -5 -3 -12 2 -15 10 -7 19
-24 11 -24 -11 0 -9 -7 -21 -16 -28 -15 -10 -15 -14 0 -44 22 -41 15 -66 -7
-26 -9 17 -16 26 -17 21 0 -5 -7 -3 -15 4 -9 7 -19 10 -23 6 -4 -4 1 -12 11
-17 9 -6 17 -18 17 -27 0 -12 -3 -13 -8 -5 -5 9 -12 1 -21 -22 -11 -32 -31
-48 -31 -25 0 6 -5 10 -11 10 -7 0 -9 -12 -7 -31 3 -21 -1 -34 -14 -43 -10 -7
-15 -16 -11 -19 3 -4 -1 -7 -9 -7 -9 0 -19 -11 -22 -25 -4 -14 -11 -23 -16
-20 -5 3 -23 -4 -39 -16 -16 -12 -37 -19 -45 -16 -10 4 -16 1 -16 -8 0 -8 -3
-14 -7 -13 -19 5 -74 -15 -82 -29 -5 -10 -21 -16 -40 -15 -17 0 -29 -3 -26 -8
3 -4 -5 -8 -18 -7 -36 1 -210 -14 -234 -20 -13 -3 -23 -1 -23 4 0 14 -66 32
-81 22 -25 -16 -79 -11 -79 7 0 12 -5 14 -17 9 -10 -4 -29 -10 -43 -12 -20 -4
-22 -2 -10 6 8 6 10 11 4 11 -5 0 -15 -5 -22 -12 -9 -9 -12 -9 -12 0 0 7 -7
12 -15 12 -8 0 -15 5 -15 11 0 6 7 9 15 5 8 -3 15 -1 15 4 0 5 -15 9 -33 8
-34 -1 -85 21 -106 46 -8 9 -20 16 -27 16 -8 0 -14 6 -14 13 0 7 -16 21 -35
31 -21 11 -35 27 -35 38 0 10 -7 18 -16 18 -11 0 -14 -6 -9 -22 12 -38 49 -88
63 -83 7 2 12 -4 12 -14 0 -12 11 -23 30 -30 17 -5 30 -15 30 -21 0 -5 30 -25
68 -43 37 -17 69 -35 70 -39 2 -5 12 -8 22 -8 11 0 22 -11 28 -27 6 -16 11
-23 11 -18 1 9 11 10 66 6 6 -1 12 -11 12 -23 2 -17 0 -19 -7 -8 -8 12 -10 12
-16 -3 -7 -20 -33 -23 -40 -3 -5 12 -54 18 -54 6 0 -3 -11 -6 -25 -6 -14 -1
-25 4 -25 11 0 22 -28 38 -55 31 -31 -8 -34 -41 -5 -56 11 -6 20 -7 20 -3 0 4
6 1 13 -7 14 -19 82 -59 105 -63 10 -2 37 -12 62 -24 28 -12 60 -19 85 -17 22
2 49 -1 60 -6 36 -16 198 -51 212 -46 8 3 11 1 8 -4 -8 -12 -8 -12 33 -1 20 6
32 6 32 0 0 -16 49 -10 99 11 26 12 67 22 92 24 24 1 53 6 63 11 13 6 21 5 24
-4 5 -14 26 -2 109 61 28 21 66 43 85 48 18 6 37 19 43 32 13 28 35 35 35 11
1 -12 8 -6 23 19 12 21 28 38 35 38 6 0 12 4 12 9 0 5 12 12 26 15 28 7 56 30
48 39 -3 3 0 29 6 58 6 30 12 63 14 74 1 11 6 28 10 37 4 10 6 36 3 58 -5 42
9 68 15 28 2 -18 10 -23 38 -25 19 -1 125 -7 234 -12 110 -6 203 -14 208 -19
4 -4 9 -46 10 -92 l3 -85 -35 0 c-19 1 -114 7 -210 14 -96 7 -188 13 -205 14
-21 2 -31 -3 -33 -15 -3 -16 5 -18 72 -18 83 0 82 1 85 -80 1 -25 4 -58 7 -74
l5 -29 -33 27 c-36 29 -68 45 -110 53 l-27 5 2 -81 c1 -49 -3 -85 -9 -89 -6
-4 -17 -24 -24 -45 -36 -112 -120 -192 -336 -320 -182 -109 -566 -170 -1064
-171 -209 -1 -289 3 -380 17 -162 26 -283 55 -362 88 -74 31 -198 106 -198
121 0 5 -4 7 -9 4 -11 -7 -30 58 -37 132 -6 57 -4 67 33 144 95 194 107 292
70 543 -14 94 -33 222 -42 285 -23 172 -40 256 -49 242 -4 -7 -18 -12 -32 -12
-17 0 -24 5 -24 20 0 14 7 20 21 20 11 0 17 5 14 10 -3 5 -15 10 -26 10 -11 0
-22 7 -25 15 -7 18 -142 105 -164 105 -32 0 -68 -53 -89 -132 -12 -42 -35
-125 -52 -184 -17 -58 -27 -110 -22 -114 13 -13 153 -60 177 -60 49 0 60 -43
21 -80 -14 -13 -25 -31 -25 -40 0 -9 -7 -43 -16 -75 -9 -33 -17 -81 -18 -106
-1 -25 -6 -51 -11 -58 -4 -8 -2 -16 4 -21 7 -4 14 -36 17 -71 5 -80 19 -140
35 -149 6 -5 29 -11 50 -14 33 -5 40 -12 64 -60 26 -53 26 -53 7 -87 -10 -19
-31 -41 -48 -49 -16 -8 -49 -29 -74 -46 -25 -16 -65 -36 -90 -44 -25 -7 -80
-28 -123 -47 -42 -19 -81 -32 -86 -29 -5 3 -12 59 -15 123 -4 65 -9 156 -12
203 -8 132 -34 668 -39 825 -3 77 -10 210 -15 295 -6 85 -10 164 -10 175 0 20
-3 20 -72 12 -132 -15 -165 -31 -210 -97 -17 -25 -17 -23 -17 56 -1 45 -4 115
-7 156 -6 67 -9 75 -25 71 -10 -3 -17 -9 -14 -13 3 -5 1 -20 -5 -34 -14 -38
-44 -24 -37 18 7 46 -19 77 -63 77 -19 -1 -97 -1 -173 -2 -96 0 -135 -4 -131
-11 4 -6 0 -16 -10 -23 -9 -7 -20 -34 -25 -60 -8 -41 -6 -51 10 -68 10 -11 25
-40 33 -64 14 -42 14 -44 -2 -38 -9 4 -30 10 -47 14 -20 5 -30 13 -31 26 -4
74 -3 73 -34 77 l-30 5 0 -163 c0 -98 -4 -165 -10 -169 -6 -4 -11 8 -11 27 -1
18 -3 58 -5 88 -6 125 -13 383 -14 503 l0 127 -30 0 c-16 0 -30 -4 -30 -10 0
-12 -63 -8 -72 5 -5 6 -8 5 -8 -2 0 -16 -56 -17 -65 -3 -4 6 -33 10 -65 9 -33
-1 -57 -6 -54 -10 3 -5 -7 -9 -23 -9 -21 0 -33 8 -46 31 -10 18 -16 33 -15 34
2 2 119 5 260 6 142 2 266 7 275 11 14 5 15 7 3 9 -8 2 28 5 80 8 l95 6 -1 40
c0 22 -2 114 -5 205 -4 165 -4 165 19 175 17 7 22 16 19 32 -2 13 2 28 9 34 9
8 18 2 36 -21 21 -29 26 -31 64 -25 l42 6 6 -93 c3 -51 8 -151 10 -222 5 -131
11 -151 44 -138 10 3 13 1 8 -6 -7 -11 7 -17 29 -12 6 1 28 3 50 5 22 2 42 5
45 6 11 4 40 6 129 8 l93 1 -5 137 c-2 75 -8 138 -13 139 -5 2 -60 4 -122 6
-107 4 -114 6 -140 31 -25 25 -27 35 -31 120 -4 106 5 114 14 12 4 -44 13 -80
24 -95 16 -22 26 -25 96 -28 l77 -3 -6 24 c-7 29 -10 226 -3 233 2 2 7 -46 10
-107 7 -121 19 -149 64 -149 18 0 23 5 23 26 0 17 -6 28 -19 31 -13 3 -20 16
-23 41 -6 64 1 92 23 92 28 0 20 58 -11 75 -15 8 -19 15 -11 19 6 4 11 2 11
-5 0 -8 3 -9 13 0 10 8 13 35 10 103 -2 68 0 89 8 78 8 -11 9 -5 7 26 -2 24 1
41 7 41 6 0 9 -13 7 -28 l-4 -29 31 16 c18 9 42 14 54 10 11 -3 27 0 34 6 10
8 13 4 14 -18 0 -23 2 -25 8 -11 6 17 8 16 19 -8 8 -17 8 -24 1 -20 -6 4 -5
-2 2 -13 10 -16 17 -18 31 -11 41 22 92 0 167 -72 39 -38 71 -64 72 -57 0 7 5
2 10 -11 8 -20 11 -22 26 -10 14 12 16 12 8 0 -6 -10 -4 -12 4 -7 7 5 10 15 6
24 -3 8 -1 19 6 22 6 4 12 30 12 59 1 30 7 51 13 51 7 0 14 9 17 20 3 11 1 18
-4 14 -5 -3 -6 2 -3 10 3 9 10 16 15 16 5 0 9 5 9 11 0 6 -7 8 -16 5 -13 -5
-14 -2 -8 11 4 10 10 61 14 113 4 52 8 84 9 70 1 -19 3 -22 10 -11 7 10 3 23
-10 40 -19 24 -19 24 3 48 12 13 28 21 35 19 7 -3 10 1 6 10 -6 17 -9 17 -35
3 -18 -10 -19 -8 -13 12 4 13 14 29 22 37 8 8 12 21 8 30 -3 8 0 21 6 28 6 8
9 24 5 37 -4 16 0 26 14 35 11 7 20 20 20 29 0 14 -3 13 -16 -6 -13 -17 -19
-20 -25 -10 -4 7 -3 21 2 30 5 10 6 25 2 35 -4 11 -3 15 5 10 6 -3 13 -2 17 4
3 5 1 10 -4 10 -6 0 -11 5 -11 11 0 5 5 7 10 4 6 -3 10 -2 10 4 0 5 3 17 7 27
5 13 3 15 -7 9 -9 -5 -11 -4 -6 3 11 18 24 14 32 -10 7 -22 8 -22 15 6 5 17 6
32 4 35 -3 2 -5 -1 -5 -8 0 -8 -6 -6 -17 5 -13 13 -14 19 -5 22 6 2 12 10 12
18 0 8 6 17 14 20 8 3 26 23 40 45 29 44 35 69 11 49 -16 -13 -20 -3 -9 24 3
9 10 14 14 11 13 -8 32 23 35 55 2 23 -2 30 -16 30 -32 0 -30 18 5 45 20 15
35 30 34 33 -6 26 77 136 94 126 5 -3 7 -2 6 3 -5 17 79 104 95 98 8 -4 21 0
28 8 8 7 20 12 28 9 8 -3 11 0 8 5 -6 10 33 33 56 33 7 0 28 10 47 22 19 12
42 21 52 19 9 -1 19 3 23 9 3 5 1 10 -6 10 -7 0 -9 3 -5 7 9 9 62 13 218 16
97 1 128 -1 128 -10 0 -14 71 -19 83 -6 4 4 31 6 60 4 36 -1 58 3 72 14 11 9
14 14 7 10 -7 -4 -32 -3 -55 1 l-42 7 33 14 c33 14 40 27 20 39 -6 4 -8 3 -5
-4 5 -6 0 -8 -13 -5 -34 9 -23 26 13 19 17 -3 39 -7 47 -8z m3120 2 c-8 -5
-19 -10 -25 -10 -5 0 -3 5 5 10 8 5 20 10 25 10 6 0 3 -5 -5 -10z m-636 -36
c-4 -17 -2 -29 7 -35 11 -7 12 -9 1 -9 -8 0 -16 9 -19 20 -3 11 -10 20 -15 20
-5 0 -6 -4 -3 -10 3 -5 1 -10 -5 -10 -8 0 -10 -9 -6 -25 5 -21 3 -25 -15 -25
-15 0 -19 5 -15 15 3 9 -3 19 -15 25 -27 15 -14 31 19 24 21 -4 24 -3 12 5
-12 9 -10 11 12 11 15 0 30 5 33 10 11 18 15 10 9 -16z m206 11 c0 -8 -4 -15
-10 -15 -5 0 -7 7 -4 15 4 8 8 15 10 15 2 0 4 -7 4 -15z m-797 -2 c3 -5 -6 -9
-20 -10 -19 -1 -22 1 -12 8 17 11 26 11 32 2z m-4943 -13 c8 -5 11 -10 5 -10
-5 0 -17 5 -25 10 -8 5 -10 10 -5 10 6 0 17 -5 25 -10z m3340 -6 c0 -2 -7 -4
-15 -4 -8 0 -15 4 -15 10 0 5 7 7 15 4 8 -4 15 -8 15 -10z m-3403 -34 c10 0
13 6 9 16 -6 15 -4 15 10 3 15 -12 14 -15 -12 -25 -25 -11 -31 -10 -47 7 -10
11 -15 24 -11 30 4 6 12 3 21 -10 8 -12 21 -21 30 -21z m5732 13 c-1 -16 0
-35 2 -42 3 -11 -5 -15 -26 -15 -16 -1 -33 -5 -37 -11 -4 -5 -9 -7 -12 -4 -11
10 24 68 44 74 11 4 20 11 20 16 0 5 2 9 5 9 3 0 5 -12 4 -27z m-313 -8 c-6
-18 21 -28 42 -15 16 9 16 9 0 10 -9 0 -19 4 -22 9 -6 9 20 8 44 -1 8 -4 22
-8 30 -10 9 -3 2 -11 -19 -21 -37 -18 -76 -23 -67 -8 4 5 -14 9 -39 9 -32 0
-45 -4 -45 -14 0 -21 -37 -17 -43 5 -10 38 16 56 72 52 38 -2 51 -7 47 -16z
m-2471 5 c18 -8 17 -9 -7 -9 -16 -1 -28 4 -28 9 0 12 8 12 35 0z m-2795 -16
c0 -11 -5 -14 -16 -10 -13 5 -14 4 -5 -7 12 -16 -22 -32 -129 -61 -30 -8 -79
-21 -107 -29 -29 -9 -53 -13 -53 -11 0 3 -14 -3 -31 -11 -31 -16 -89 -13 -89
5 0 5 19 14 43 21 23 6 47 14 52 18 6 4 46 16 90 27 44 10 83 22 86 27 4 5 24
10 45 11 22 1 45 5 52 9 6 5 12 4 12 -2 0 -6 9 -2 20 9 24 24 30 25 30 4z
m5666 6 c8 0 14 -7 14 -15 0 -10 -10 -15 -28 -15 -21 0 -28 5 -29 21 -1 15 2
19 13 15 9 -3 22 -6 30 -6z m114 0 c0 -5 -4 -10 -10 -10 -5 0 -10 5 -10 10 0
6 5 10 10 10 6 0 10 -4 10 -10z m197 -37 c6 -16 -28 -25 -44 -11 -13 10 -12
13 4 19 22 9 36 6 40 -8z m-6232 -3 c-3 -5 -11 -10 -16 -10 -6 0 -7 5 -4 10 3
6 11 10 16 10 6 0 7 -4 4 -10z m-35 -9 c0 -5 -7 -11 -15 -15 -15 -5 -20 5 -8
17 9 10 23 9 23 -2z m5072 2 c-6 -3 -10 -8 -8 -11 2 -4 -12 -8 -32 -8 -21 -1
-28 0 -18 3 12 3 15 8 8 12 -7 4 5 7 26 8 20 0 31 -2 24 -4z m116 -38 c-3 -3
-9 2 -12 12 -6 14 -5 15 5 6 7 -7 10 -15 7 -18z m1062 -11 c0 -8 5 -12 11 -8
8 4 9 -4 4 -27 -9 -41 -10 -43 -25 -34 -9 6 -9 10 1 17 11 8 11 9 -1 5 -8 -2
-14 -10 -12 -17 2 -9 -7 -11 -32 -7 -19 3 -36 1 -38 -3 -2 -5 -13 -7 -26 -3
-14 3 -21 11 -18 19 3 7 1 16 -5 19 -5 4 -9 3 -8 -2 3 -17 -1 -33 -8 -31 -5 1
-27 -8 -50 -20 -23 -12 -52 -22 -65 -22 -40 0 -175 -19 -201 -29 -14 -5 -28
-7 -32 -3 -3 3 -10 1 -14 -6 -6 -10 -14 -9 -36 2 -18 10 -33 12 -40 6 -6 -5
-21 -7 -33 -3 -12 3 -22 1 -22 -4 0 -5 -7 -10 -15 -10 -9 0 -14 5 -12 11 3 6
0 19 -5 29 -6 12 -5 17 6 17 9 0 19 12 22 27 6 22 9 24 13 10 6 -16 9 -16 44
3 40 21 136 26 148 8 6 -9 84 6 129 25 14 6 28 11 32 11 3 1 10 4 14 9 12 12
34 8 32 -5 -4 -19 42 -22 55 -4 7 10 29 17 54 18 23 1 48 5 55 9 24 15 78 10
78 -7z m-1131 -31 c-1 -5 0 -10 1 -13 1 -3 3 -13 5 -22 4 -22 -11 -24 -19 -2
-9 24 -7 44 4 44 6 0 9 -3 9 -7z m91 -25 c0 -15 -15 -8 -28 12 -12 19 -11 20
8 8 11 -7 20 -16 20 -20z m677 26 c-3 -3 -12 -4 -19 -1 -8 3 -5 6 6 6 11 1 17
-2 13 -5z m-6033 -22 c3 -5 -11 -8 -30 -8 -18 1 -34 4 -34 8 0 11 57 10 64 0z
m-84 -12 c0 -5 -5 -10 -11 -10 -5 0 -7 5 -4 10 3 6 8 10 11 10 2 0 4 -4 4 -10z
m970 -15 c0 -22 -39 -34 -127 -39 -83 -4 -81 4 9 34 68 22 118 24 118 5z
m4350 -5 c-8 -5 -22 -10 -30 -10 -13 0 -13 1 0 10 8 5 22 10 30 10 13 0 13 -1
0 -10z m394 -2 c-3 -4 -14 -8 -25 -8 -11 0 -18 4 -14 9 3 6 14 9 25 8 10 -1
16 -5 14 -9z m-444 -2 c0 -3 -4 -8 -10 -11 -5 -3 -10 -1 -10 4 0 6 5 11 10 11
6 0 10 -2 10 -4z m360 -5 c0 -5 -7 -14 -15 -21 -8 -7 -15 -10 -15 -7 0 3 -2
12 -5 19 -4 9 2 14 15 15 11 1 20 -2 20 -6z m30 -11 c0 -11 -4 -20 -10 -20 -5
0 -10 9 -10 20 0 11 5 20 10 20 6 0 10 -9 10 -20z m-104 -5 c-8 -8 -17 -15
-20 -15 -3 0 -3 7 0 15 4 8 13 15 21 15 12 0 12 -2 -1 -15z m-426 -9 c0 -9
-40 -13 -46 -5 -3 5 6 9 20 9 14 0 26 -2 26 -4z m345 -6 c3 -5 1 -10 -4 -10
-6 0 -11 5 -11 10 0 6 2 10 4 10 3 0 8 -4 11 -10z m108 3 c-7 -2 -13 -12 -13
-20 0 -9 -3 -14 -6 -10 -10 10 4 37 18 36 10 0 10 -2 1 -6z m157 -17 c0 -3 -4
-8 -10 -11 -5 -3 -10 -1 -10 4 0 6 5 11 10 11 6 0 10 -2 10 -4z m-370 -10 c0
-11 -19 -15 -25 -6 -3 5 1 10 9 10 9 0 16 -2 16 -4z m72 -62 c-9 -7 -19 -10
-22 -7 -3 3 1 8 8 10 17 6 15 23 -2 23 -8 0 -17 -8 -19 -17 -4 -14 -5 -13 -6
4 -1 27 19 35 41 15 17 -14 17 -16 0 -28z m268 36 c0 -5 -4 -10 -10 -10 -5 0
-10 5 -10 10 0 6 5 10 10 10 6 0 10 -4 10 -10z m-1045 -10 c3 -5 1 -10 -4 -10
-6 0 -11 5 -11 10 0 6 2 10 4 10 3 0 8 -4 11 -10z m595 0 c0 -5 -5 -10 -11
-10 -5 0 -7 5 -4 10 3 6 8 10 11 10 2 0 4 -4 4 -10z m327 -6 c4 -10 0 -20 -10
-26 -9 -4 -14 -14 -11 -22 4 -9 -4 -11 -27 -8 -22 3 -30 1 -25 -7 4 -6 1 -11
-8 -11 -9 0 -16 2 -16 4 0 2 -3 12 -6 20 -5 12 -2 15 10 10 9 -3 24 -3 34 1
15 6 14 8 -5 16 -13 4 -23 13 -23 20 0 6 6 9 13 6 6 -2 21 -1 32 4 30 11 35
11 42 -7z m-5052 -9 c-22 -7 -44 -10 -49 -7 -14 8 24 21 59 20 28 0 28 -1 -10
-13z m4570 5 c3 -5 -1 -10 -10 -10 -9 0 -13 5 -10 10 3 6 8 10 10 10 2 0 7 -4
10 -10z m532 3 c-4 -3 1 -15 10 -25 16 -18 16 -18 -3 -12 -32 13 -41 44 -12
44 6 0 8 -3 5 -7z m-322 -13 c-3 -5 -10 -10 -16 -10 -5 0 -9 5 -9 10 0 6 7 10
16 10 8 0 12 -4 9 -10z m-288 -47 c-4 -17 -4 -17 -12 0 -4 9 -4 25 0 35 8 16
8 16 12 0 3 -10 3 -26 0 -35z m200 41 c-3 -3 -12 -4 -19 -1 -8 3 -5 6 6 6 11
1 17 -2 13 -5z m237 -19 c-7 -16 -24 -21 -24 -6 0 8 7 13 27 20 1 1 0 -6 -3
-14z m-6273 -68 c-13 -13 -15 31 -3 60 5 14 8 10 10 -16 2 -18 -1 -38 -7 -44z
m6919 63 c8 13 10 13 10 -2 0 -9 -4 -20 -10 -23 -5 -3 -10 -11 -10 -16 0 -6 5
-7 10 -4 6 3 10 -1 10 -11 0 -13 -3 -14 -15 -4 -12 10 -15 10 -15 -4 0 -9 7
-16 16 -16 10 0 14 -7 12 -22 -2 -18 -9 -22 -28 -20 -22 2 -23 1 -7 -8 9 -6
21 -9 26 -6 5 3 11 -1 15 -9 5 -15 -19 -21 -71 -16 -13 1 -23 -4 -23 -11 0 -9
-3 -9 -11 -1 -9 9 -17 8 -33 -1 -11 -7 -46 -14 -76 -15 -30 0 -59 -6 -64 -11
-13 -13 -26 -13 -26 0 0 6 7 10 15 10 11 0 15 11 15 38 -1 31 -3 34 -13 21 -7
-9 -18 -14 -24 -12 -7 3 -13 0 -13 -6 0 -6 -4 -11 -9 -11 -6 0 -8 9 -6 20 3
14 -2 20 -16 20 -24 0 -25 16 -2 24 11 4 22 1 29 -8 16 -23 26 -20 19 5 -5 16
-4 19 5 14 10 -6 11 -1 6 19 -3 14 -3 26 1 25 5 -1 10 -1 13 1 15 5 69 13 97
13 18 0 30 4 27 9 -3 4 3 8 13 8 10 0 29 3 43 6 24 6 25 6 5 -9 -17 -14 -18
-16 -3 -17 9 0 23 7 32 15 10 11 17 12 22 4 8 -14 -14 -29 -43 -29 -13 0 -23
-5 -23 -11 0 -6 7 -8 16 -5 9 3 27 6 41 6 23 0 25 3 19 33 -4 23 -3 28 4 17 9
-13 11 -13 20 0z m102 -70 c4 0 8 16 8 36 0 20 4 33 10 29 5 -3 7 -12 3 -20
-3 -9 1 -15 11 -15 10 0 13 -6 9 -16 -5 -13 -7 -13 -14 -2 -7 10 -9 9 -9 -4 0
-10 -5 -18 -11 -18 -5 0 -8 -4 -4 -9 3 -5 1 -12 -5 -16 -5 -3 -10 -15 -10 -26
0 -18 -2 -19 -15 -5 -18 17 -21 51 -3 40 8 -5 9 0 4 17 -5 13 -10 40 -12 59
l-4 35 17 -42 c9 -24 21 -43 25 -43z m-1257 48 c-7 -23 -7 -23 9 -3 15 20 15
20 16 -1 0 -31 -25 -37 -47 -12 -10 12 -13 18 -7 15 7 -4 14 0 18 8 9 24 18
17 11 -7z m48 7 c4 -8 2 -17 -3 -20 -6 -4 -10 3 -10 14 0 25 6 27 13 6z m477
-15 c0 -5 -4 -10 -10 -10 -5 0 -10 5 -10 10 0 6 5 10 10 10 6 0 10 -4 10 -10z
m295 -40 c3 -5 1 -10 -4 -10 -6 0 -11 5 -11 10 0 6 2 10 4 10 3 0 8 -4 11 -10z
m-150 -30 c-3 -5 -11 -10 -16 -10 -6 0 -7 5 -4 10 3 6 11 10 16 10 6 0 7 -4 4
-10z m-3206 -28 c-5 -2 -7 -7 -4 -12 3 -4 -2 -10 -10 -14 -16 -6 -21 9 -5 19
5 3 6 13 3 22 -6 15 -5 16 9 3 9 -8 12 -17 7 -18z m3049 -30 c-13 -47 -21 -56
-14 -17 2 17 5 38 5 48 1 10 5 16 10 13 6 -4 5 -21 -1 -44z m1156 2 c9 -8 16
-20 16 -25 0 -5 7 -9 15 -9 8 0 15 -9 15 -20 0 -17 -5 -19 -25 -14 -23 6 -37
-10 -16 -18 5 -1 3 -12 -5 -22 -17 -24 -23 -18 -35 31 -19 84 -4 117 35 77z
m76 1 c7 -8 20 -15 30 -15 9 0 25 -9 34 -19 17 -19 16 -19 -26 -16 -24 2 -47
4 -51 4 -5 1 -5 6 -2 11 3 6 0 10 -7 10 -9 0 -9 3 2 10 13 9 13 11 0 20 -8 5
-10 10 -4 10 6 0 17 -7 24 -15z m-1162 -29 c7 -4 10 -17 6 -32 -5 -20 -3 -23
12 -17 12 4 15 3 10 -6 -5 -7 -18 -10 -31 -7 -13 3 -27 2 -30 -4 -8 -13 -25
-13 -25 0 0 6 7 10 16 10 8 0 13 4 10 9 -4 5 -1 11 6 13 7 3 3 7 -9 10 -14 4
-21 2 -20 -5 1 -6 -5 -12 -13 -12 -8 -1 -10 0 -4 2 6 2 9 14 7 27 -4 21 -1 24
24 22 17 -2 35 -6 41 -10z m115 -1 c4 -8 2 -17 -3 -20 -6 -4 -10 1 -10 9 0 8
-10 17 -22 19 -21 4 -20 4 3 6 15 0 29 -5 32 -14z m865 -6 c2 -5 3 -11 2 -15
-1 -4 4 -10 11 -15 13 -7 22 -98 10 -100 -26 -7 -80 -5 -69 2 15 10 21 56 7
64 -5 4 -9 -3 -9 -14 0 -12 -7 -21 -15 -21 -8 0 -15 -4 -15 -9 0 -10 -31 -23
-60 -26 -8 -1 -30 -5 -48 -9 -21 -5 -45 -3 -64 5 -26 10 -46 9 -124 -6 -88
-17 -93 -20 -78 -36 14 -16 12 -18 -36 -28 -78 -17 -103 -15 -97 8 4 17 -1 19
-45 18 -30 -2 -52 -8 -58 -17 -5 -8 -12 -12 -15 -8 -9 8 24 38 43 39 12 0 10
3 -6 10 -21 8 -22 11 -9 23 8 8 42 23 76 33 39 12 59 22 56 30 -6 17 31 37 40
22 4 -6 30 -10 59 -9 73 2 76 2 76 -15 0 -8 7 -15 16 -15 24 0 54 19 54 34 0
15 50 29 92 27 14 -1 29 2 33 8 3 6 1 11 -6 11 -20 0 -1 14 21 15 11 1 20 -2
20 -7 0 -11 43 1 48 12 4 10 86 0 90 -11z m-1131 -11 c-3 -8 -6 -5 -6 6 -1 11
2 17 5 13 3 -3 4 -12 1 -19z m223 -13 c0 -15 -6 -25 -14 -25 -11 0 -12 5 -3
25 15 31 17 31 17 0z m130 4 c0 -5 -4 -9 -10 -9 -5 0 -10 7 -10 16 0 8 5 12
10 9 6 -3 10 -10 10 -16z m-3347 -19 c-7 -25 -23 -27 -18 -2 2 9 4 18 4 20 1
1 5 2 10 2 5 0 7 -9 4 -20z m2862 3 l30 -6 -25 -10 c-97 -40 -112 -43 -104
-22 8 20 -25 20 -40 0 -8 -11 -15 -12 -26 -4 -11 8 -12 12 -2 16 6 2 12 11 12
18 0 24 60 27 155 8z m139 -11 c-1 -6 -2 -18 -2 -26 -1 -8 -10 -15 -19 -15
-10 1 -35 -2 -55 -6 -31 -6 -38 -5 -38 9 0 9 8 16 20 16 13 0 20 7 20 19 0 15
7 18 38 17 23 -1 37 -6 36 -14z m791 8 c3 -5 1 -10 -4 -10 -6 0 -11 5 -11 10
0 6 2 10 4 10 3 0 8 -4 11 -10z m-720 -30 c3 -5 2 -10 -4 -10 -5 0 -13 5 -16
10 -3 6 -2 10 4 10 5 0 13 -4 16 -10z m454 -6 c6 4 11 3 11 -2 0 -11 -37 -19
-62 -14 -10 2 -18 7 -18 12 0 5 6 7 14 4 8 -3 17 0 21 6 6 9 9 9 15 0 4 -7 13
-9 19 -6z m757 -13 c5 1 20 1 34 -1 22 -1 19 -3 -15 -16 -22 -8 -46 -12 -53
-9 -8 3 -21 0 -28 -6 -25 -21 -14 3 12 28 18 17 29 21 34 13 4 -6 11 -10 16
-9z m-4814 -18 c0 -4 4 -18 9 -30 5 -14 5 -23 -1 -23 -6 0 -9 -3 -9 -7 3 -19
-2 -27 -9 -16 -8 13 -3 98 5 89 3 -2 5 -8 5 -13z m3846 6 c26 14 62 14 62 0 0
-5 -5 -7 -12 -3 -8 5 -9 2 -3 -12 5 -10 11 -44 13 -75 l4 -56 -36 -7 c-20 -4
-53 -9 -74 -12 -20 -2 -45 -7 -56 -10 -10 -4 -16 -2 -13 3 4 6 -9 10 -28 11
-23 1 -34 -3 -32 -11 1 -7 -8 -12 -20 -12 -39 0 -29 19 25 45 32 15 52 32 54
44 4 25 28 33 28 9 0 -14 2 -15 9 -4 14 22 -9 37 -57 39 -36 2 -42 -1 -40 -16
2 -13 -5 -18 -32 -19 -28 -2 -31 -1 -15 7 16 7 10 9 -26 9 -28 1 -51 7 -59 16
-10 12 -9 15 4 15 10 0 14 -4 11 -10 -3 -5 1 -10 9 -10 10 0 13 6 10 15 -4 8
-1 15 5 15 6 0 10 -3 9 -7 -2 -5 2 -8 7 -8 6 0 9 3 8 8 -2 4 2 7 7 7 6 0 10
-6 10 -14 0 -9 8 -12 25 -8 14 2 25 8 25 12 0 5 10 6 22 2 13 -3 19 -1 15 5
-9 14 15 23 58 23 19 0 37 5 41 11 5 8 9 8 14 -1 6 -9 13 -9 28 -1z m-333 -59
c7 -12 -2 -12 -30 0 -19 8 -19 9 2 9 12 1 25 -3 28 -9z m-62 -17 c-2 -7 3 -13
11 -13 15 0 31 -18 24 -26 -3 -2 -25 -8 -51 -13 -32 -6 -47 -5 -50 3 -2 6 -8
7 -13 3 -5 -5 0 -13 10 -19 19 -11 19 -11 1 -24 -11 -8 -13 -14 -6 -14 7 0 19
7 27 15 16 16 74 21 74 7 0 -5 13 -7 29 -6 80 5 52 -43 -29 -51 -30 -2 -68 -7
-84 -11 -22 -5 -27 -4 -21 6 5 8 2 11 -11 7 -54 -16 -74 -19 -74 -8 0 6 12 11
28 12 24 0 25 1 7 9 -13 5 -1 7 35 5 l55 -4 -47 10 c-52 12 -78 43 -31 37 23
-3 27 1 27 22 0 15 -5 25 -14 26 -8 0 -28 4 -45 9 -28 8 -26 10 35 21 79 14
116 13 113 -3z m262 -4 c-4 -5 -12 -9 -18 -8 -9 0 -8 2 1 6 6 2 9 10 6 15 -4
7 -2 8 5 4 6 -4 9 -12 6 -17z m-162 -6 c-7 -2 -21 -2 -30 0 -10 3 -4 5 12 5
17 0 24 -2 18 -5z m12 -33 c-3 -4 -15 -6 -27 -2 -21 5 -21 6 -2 12 21 8 37 3
29 -10z m1197 13 c-12 -2 -20 -8 -17 -13 3 -5 12 -7 19 -4 20 8 28 -12 11 -26
-8 -7 -12 -17 -9 -22 3 -5 -16 -10 -48 -10 -161 -2 -266 2 -288 11 l-25 10 26
0 c15 1 32 8 39 16 16 20 22 19 50 -7 21 -19 24 -20 35 -5 7 10 19 14 33 10
15 -3 22 -1 22 8 0 11 2 11 10 -1 7 -11 12 -12 18 -3 4 6 20 14 36 17 16 3 34
10 40 16 5 5 24 9 41 9 23 -1 25 -3 7 -6z m-1231 -36 c-1 -12 -15 -9 -19 4 -3
6 1 10 8 8 6 -3 11 -8 11 -12z m-231 -12 c0 -8 -4 -15 -10 -15 -5 0 -7 7 -4
15 4 8 8 15 10 15 2 0 4 -7 4 -15z m1078 -9 c15 2 19 1 10 -2 -10 -3 -18 -11
-18 -19 0 -7 -6 -15 -13 -18 -9 -3 -13 6 -13 32 -1 20 1 29 3 20 3 -11 13 -15
31 -13z m-3978 2 c0 -4 -4 -8 -9 -8 -6 0 -12 4 -15 8 -3 5 1 9 9 9 8 0 15 -4
15 -9z m3890 -9 c0 -5 -4 -9 -10 -9 -5 0 -10 7 -10 16 0 8 5 12 10 9 6 -3 10
-10 10 -16z m-39 -23 c38 -16 49 -36 49 -93 0 -25 -4 -33 -18 -33 -10 0 -24 6
-31 13 -10 10 -14 9 -22 -5 -6 -10 -21 -16 -39 -16 -16 1 -27 4 -25 8 4 6
-139 4 -182 -3 -12 -2 -28 -8 -36 -15 -19 -16 -143 -27 -151 -13 -9 14 -86 15
-86 1 0 -5 -7 -10 -15 -10 -8 0 -15 -6 -15 -12 0 -7 -13 -14 -30 -15 -26 -2
-31 2 -38 30 -6 21 -5 37 2 46 8 11 8 13 -1 7 -8 -4 -13 -2 -13 6 0 24 15 35
55 42 22 5 53 10 69 13 24 5 28 3 23 -11 -5 -11 -1 -16 13 -16 11 0 20 4 20 9
0 5 8 11 18 14 14 3 13 6 -8 15 -14 6 -18 11 -10 11 9 1 26 -6 38 -15 25 -17
52 -13 52 10 0 19 37 27 50 11 6 -7 7 -15 3 -17 -4 -3 -1 -3 7 0 41 12 55 14
42 4 -11 -7 -6 -12 19 -21 23 -8 35 -8 37 -1 2 5 10 10 17 10 8 0 16 4 19 8 2
4 -8 7 -22 6 -15 -1 -30 1 -35 3 -14 8 22 33 50 34 15 1 39 5 53 9 34 10 98 4
141 -14z m-7441 5 c0 -5 -7 -14 -15 -21 -12 -10 -19 -10 -28 -1 -9 9 -9 14 3
21 19 12 40 13 40 1z m6238 -16 c-3 -13 0 -26 6 -28 6 -2 8 -8 4 -12 -4 -4
-11 -4 -17 0 -15 8 -14 65 0 65 7 0 9 -10 7 -25z m1712 5 c-20 -13 -33 -13
-25 0 3 6 14 10 23 10 15 0 15 -2 2 -10z m-263 -17 c93 -7 84 -26 -11 -22 -39
2 -77 0 -83 -4 -16 -10 -33 0 -33 18 0 16 19 25 40 18 8 -2 47 -7 87 -10z
m-637 -13 c0 -5 -4 -10 -9 -10 -6 0 -13 5 -16 10 -3 6 1 10 9 10 9 0 16 -4 16
-10z m-625 -19 c-3 -6 -11 -11 -17 -11 -6 0 -6 6 2 15 14 17 26 13 15 -4z
m316 -43 c1 -18 1 -36 0 -41 -1 -4 3 -25 8 -47 9 -39 8 -40 -23 -44 -139 -22
-153 -22 -176 -1 -15 13 -17 22 -9 36 6 13 6 25 -1 39 -13 25 -30 18 -23 -9 3
-10 0 -28 -6 -39 -8 -15 -8 -21 1 -24 8 -3 8 -9 0 -24 -6 -10 -12 -13 -12 -6
0 6 -10 12 -23 12 -21 0 -23 4 -18 33 4 31 5 31 12 7 l7 -25 1 28 c1 16 5 26
10 23 4 -3 6 6 3 21 -5 25 -6 25 -20 7 -14 -18 -14 -18 -10 2 5 18 1 20 -20
16 -17 -3 -23 -1 -18 7 4 6 14 11 22 11 8 0 14 4 14 8 0 4 8 8 18 8 23 1 116
13 177 23 84 14 85 14 86 -21z m-4908 -29 c45 -5 110 -15 145 -20 59 -11 62
-12 62 -39 0 -16 5 -32 11 -36 6 -3 9 -15 6 -25 -3 -11 -2 -19 1 -19 4 0 12
-11 18 -25 9 -18 9 -25 0 -28 -6 -3 0 -9 13 -14 l25 -10 -27 -7 c-19 -4 -27
-13 -27 -28 0 -19 -1 -20 -12 -6 -7 9 -26 18 -43 20 l-30 3 0 -69 c0 -47 4
-71 13 -73 9 -4 12 13 12 63 0 72 13 82 15 11 2 -49 12 -86 26 -88 5 -1 14 -3
19 -4 6 -1 17 -3 26 -4 10 -1 13 -7 9 -20 -4 -12 0 -21 11 -25 13 -5 14 -10 6
-18 -8 -8 -7 -15 4 -25 15 -16 19 -38 5 -29 -12 8 -22 -47 -10 -58 6 -6 9 -3
9 10 0 16 2 17 10 4 15 -23 12 -43 -5 -36 -9 3 -15 0 -15 -9 0 -8 6 -15 13
-15 8 0 19 -11 27 -24 7 -14 18 -22 26 -19 8 3 14 -1 14 -11 0 -9 -4 -16 -10
-16 -6 0 -6 -10 1 -27 l10 -26 -298 6 c-164 4 -314 11 -333 16 -19 5 -28 9
-20 10 10 1 11 4 4 9 -7 4 -14 58 -18 127 -4 66 -9 143 -11 170 -10 155 -16
405 -10 415 9 14 171 8 328 -11z m6240 4 c-7 -2 -19 -2 -25 0 -7 3 -2 5 12 5
14 0 19 -2 13 -5z m-189 -38 c-9 -14 -12 -25 -6 -25 6 0 13 6 15 13 3 6 6 -10
6 -36 1 -36 -2 -46 -11 -40 -7 4 -5 -5 5 -21 10 -15 17 -29 15 -31 -3 -2 -112
-16 -178 -21 -19 -1 -82 -10 -140 -18 -58 -8 -114 -15 -125 -16 -11 0 -51 -4
-90 -9 -181 -22 -218 -24 -210 -11 4 7 7 44 7 81 -1 64 0 69 21 73 28 6 133
19 172 21 17 1 84 10 150 20 66 9 150 20 187 24 37 4 69 9 72 11 2 3 32 6 66
8 l61 3 -17 -26z m-1442 -29 c-4 -7 -8 -5 -10 7 -2 9 -8 17 -13 17 -5 0 -9 5
-9 12 0 6 8 3 20 -7 11 -10 16 -23 12 -29z m-3302 -19 c0 -16 5 -38 12 -50 7
-12 13 -26 13 -32 1 -5 7 -23 13 -39 7 -16 9 -33 4 -38 -14 -14 -212 -23 -212
-9 0 6 4 11 9 11 5 0 11 14 15 30 3 17 11 30 18 30 7 0 24 14 37 31 18 23 26
27 33 17 12 -19 26 6 34 61 7 47 24 39 24 -12z m3297 -49 c-3 -7 -5 -2 -5 12
0 14 2 19 5 13 2 -7 2 -19 0 -25z m-6415 -7 c49 -31 64 -63 48 -105 -8 -23
-15 -26 -54 -26 -36 0 -49 6 -76 33 -29 30 -66 86 -58 91 18 11 75 35 84 35 5
1 31 -12 56 -28z m7053 8 c-4 -5 -2 -9 3 -9 6 0 13 8 16 17 5 12 10 13 17 6
15 -15 3 -33 -22 -33 -10 0 -19 -4 -19 -10 0 -5 -4 -10 -8 -10 -4 0 -7 12 -6
28 3 35 2 34 14 27 6 -4 8 -11 5 -16z m-655 -1 c0 -3 -9 -6 -20 -5 -11 1 -20
5 -20 9 0 3 9 6 20 5 11 -1 20 -5 20 -9z m630 -8 c0 -5 -4 -10 -10 -10 -5 0
-10 5 -10 10 0 6 5 10 10 10 6 0 10 -4 10 -10z m68 -46 c1 -13 2 -27 3 -31 1
-4 1 -19 0 -32 -1 -20 -3 -21 -16 -11 -10 9 -15 9 -15 1 0 -6 -5 -11 -11 -11
-6 0 -9 7 -6 15 4 8 1 18 -6 22 -13 8 -151 6 -209 -3 -21 -3 -39 -4 -41 -2 -2
1 -11 -3 -20 -10 -18 -15 -37 -8 -37 14 0 12 8 13 35 8 25 -4 36 -2 40 8 4 11
23 14 73 13 37 -1 70 3 74 8 4 7 12 6 22 -2 11 -9 16 -10 16 -2 0 6 8 11 18
11 9 0 25 6 34 14 26 19 44 15 46 -10z m-3588 6 c0 -5 -4 -10 -10 -10 -5 0
-10 5 -10 10 0 6 5 10 10 10 6 0 10 -4 10 -10z m2967 -32 c-3 -8 -6 -5 -6 6
-1 11 2 17 5 13 3 -3 4 -12 1 -19z m-2957 8 c0 -3 -4 -8 -10 -11 -5 -3 -10 -1
-10 4 0 6 5 11 10 11 6 0 10 -2 10 -4z m2880 -26 c0 -5 -5 -10 -11 -10 -5 0
-7 5 -4 10 3 6 8 10 11 10 2 0 4 -4 4 -10z m156 -6 c-3 -9 -6 -20 -6 -25 0 -5
-7 -9 -15 -9 -8 0 -15 -5 -15 -12 0 -8 -5 -7 -15 3 -18 18 -11 46 13 52 35 9
44 7 38 -9z m-6007 -103 c2 -48 -18 -7 -23 49 l-6 55 14 -40 c8 -22 15 -51 15
-64z m6038 63 c-3 -3 -12 -4 -19 -1 -8 3 -5 6 6 6 11 1 17 -2 13 -5z m-3037
-25 c0 -11 -4 -18 -10 -14 -5 3 -7 12 -3 20 7 21 13 19 13 -6z m2850 -15 c0
-13 -4 -24 -10 -24 -5 0 -7 6 -4 14 3 8 1 17 -5 21 -17 10 -13 25 4 19 8 -4
15 -17 15 -30z m1113 -51 c4 -48 5 -88 3 -90 -4 -5 -183 -25 -343 -38 -40 -4
-85 -8 -100 -11 -15 -2 -66 -6 -112 -9 -46 -2 -86 -7 -89 -10 -3 -3 -15 -5
-27 -5 -18 0 -22 6 -24 47 -1 26 -4 50 -7 54 -2 5 -2 20 2 34 5 19 13 25 33
25 20 0 23 -2 11 -10 -12 -7 -8 -10 15 -10 23 0 27 3 15 10 -12 8 -10 10 10
11 23 0 23 1 5 9 -29 13 44 17 100 6 24 -5 26 -4 10 3 -16 8 -10 10 30 12 28
2 60 3 73 3 12 0 22 5 23 11 1 5 5 -1 9 -15 8 -24 8 -24 9 -2 1 19 6 22 41 22
22 0 43 0 46 -1 4 0 11 5 16 13 8 11 10 11 15 -1 4 -10 7 -10 13 -2 4 7 45 14
96 18 49 3 91 7 93 9 19 18 29 -5 34 -83z m-5463 45 c0 -21 -3 -29 -10 -22 -5
5 -7 19 -4 32 9 31 14 27 14 -10z m797 7 c0 -10 -11 -15 -34 -15 -31 0 -46 14
-22 22 30 10 56 7 56 -7z m697 -71 c3 -8 2 -12 -4 -9 -6 3 -10 10 -10 16 0 14
7 11 14 -7z m3217 -4 c-5 -20 -3 -56 5 -107 5 -37 4 -43 -12 -43 -14 0 -15 3
-6 12 25 25 4 30 -55 12 -14 -4 -23 -2 -23 4 0 6 8 13 18 15 9 3 -11 2 -45 -1
-43 -3 -63 -1 -63 6 0 7 11 9 30 6 24 -5 30 -3 30 11 0 12 6 16 20 12 13 -3
21 1 25 14 4 10 13 19 21 19 8 0 14 5 14 10 0 13 -4 13 -45 -4 -19 -8 -35 -20
-35 -26 0 -7 -8 -9 -20 -5 -10 3 -28 1 -39 -5 -17 -8 -25 -6 -41 10 -11 11
-20 24 -20 28 0 17 13 22 27 11 10 -9 13 -8 13 5 0 18 35 22 45 6 3 -5 14 -10
23 -9 11 0 12 2 4 6 -6 2 -9 9 -6 14 4 6 11 6 20 -2 10 -8 17 -8 27 3 19 19
93 18 88 -2z m-6181 -11 c0 -6 -4 -7 -10 -4 -5 3 -10 11 -10 16 0 6 5 7 10 4
6 -3 10 -11 10 -16z m7180 5 c0 -2 -9 -4 -21 -4 -11 0 -18 4 -14 10 5 8 35 3
35 -6z m200 6 c0 -5 -9 -10 -20 -10 -11 0 -20 5 -20 10 0 6 9 10 20 10 11 0
20 -4 20 -10z m-4498 -23 c-6 -7 -12 -21 -14 -32 -3 -15 -5 -17 -9 -5 -9 21 8
63 21 55 7 -4 8 -11 2 -18z m-1342 -30 c0 -4 -9 -3 -20 3 -11 6 -17 16 -13 25
5 13 7 13 19 -2 7 -10 14 -22 14 -26z m1362 -10 c-4 -14 -7 -16 -13 -5 -12 19
-11 25 5 25 8 0 11 -8 8 -20z m-31 -48 c-5 -13 -10 -19 -10 -12 -1 15 10 45
15 40 3 -2 0 -15 -5 -28z m4408 17 c14 -1 34 2 44 7 14 6 17 3 17 -21 0 -16 3
-57 6 -90 l7 -61 -79 -1 c-91 -1 -93 -1 -157 4 -30 2 -53 -2 -61 -10 -7 -7
-31 -16 -52 -20 -36 -7 -38 -6 -25 10 13 15 11 16 -18 14 -17 -1 -31 -5 -31
-8 0 -16 -86 -36 -201 -46 -38 -3 -49 0 -49 11 0 8 -11 17 -25 21 -31 8 -32
16 -3 29 35 16 35 36 0 29 -26 -5 -30 -3 -34 20 -3 15 -1 29 4 32 4 3 6 9 3
14 -3 5 22 8 55 8 33 -1 63 2 67 5 10 11 45 8 38 -3 -3 -5 3 -10 15 -10 12 0
19 4 16 9 -6 9 49 17 170 24 39 2 77 8 84 12 7 4 29 9 49 10 20 2 45 6 56 10
17 6 17 5 5 -5 -12 -9 -10 -10 10 -5 14 4 29 11 34 16 5 4 14 5 19 2 6 -3 22
-7 36 -7z m-4941 -8 c-3 -7 -13 -13 -23 -13 -10 0 -20 6 -22 13 -3 7 5 12 22
12 17 0 25 -5 23 -12z m3652 -16 c45 -3 91 -22 84 -34 -4 -7 -9 -6 -13 0 -9
15 -68 24 -76 12 -3 -5 -14 -10 -23 -9 -14 0 -13 2 3 9 17 7 14 9 -15 10 -19
1 -29 4 -22 7 6 2 9 10 5 16 -5 9 -3 9 8 1 8 -6 30 -11 49 -12z m-4443 -39
c-3 -10 -5 -4 -5 12 0 17 2 24 5 18 2 -7 2 -21 0 -30z m4603 22 c0 -10 -9 -15
-27 -14 -24 2 -25 2 -5 6 12 2 22 9 22 14 0 5 2 9 5 9 3 0 5 -7 5 -15z m-263
-11 c-3 -3 -12 -4 -19 -1 -8 3 -5 6 6 6 11 1 17 -2 13 -5z m40 0 c-3 -3 -12
-4 -19 -1 -8 3 -5 6 6 6 11 1 17 -2 13 -5z m100 -10 c-3 -3 -12 -4 -19 -1 -8
3 -5 6 6 6 11 1 17 -2 13 -5z m-5858 -53 c17 -26 39 -70 47 -96 19 -55 15 -61
-56 -70 -25 -4 -56 -10 -70 -15 -29 -11 -451 -6 -492 5 -45 12 -34 33 20 40
70 9 86 18 101 60 7 21 22 48 33 59 16 18 20 19 28 6 7 -10 10 -11 10 -2 0 6
6 12 14 12 8 0 14 -6 13 -12 -2 -56 5 -89 19 -95 9 -3 20 0 25 8 7 12 11 12
18 1 10 -16 247 -26 256 -12 3 5 0 30 -6 57 -26 118 -13 137 40 54z m6397 -37
c5 -47 6 -88 1 -91 -4 -2 -26 -2 -48 2 -34 6 -40 10 -36 26 3 10 0 19 -6 20
-62 6 -78 5 -83 -2 -7 -12 -67 -12 -79 0 -13 12 -56 16 -77 6 -10 -4 -24 -5
-32 -2 -8 3 -16 1 -19 -6 -2 -7 -34 -13 -88 -14 -51 -1 -74 1 -59 6 l25 7 -33
18 c-39 20 -40 50 -2 53 34 2 115 12 115 13 0 1 19 3 43 5 31 2 45 -1 49 -11
4 -11 9 -12 19 -3 10 8 27 5 70 -15 64 -30 64 -30 64 -16 0 6 -10 10 -22 10
-12 0 -18 3 -15 7 4 3 0 15 -9 24 -22 25 -11 28 93 32 45 1 85 6 89 10 21 21
31 1 40 -79z m-3686 46 c0 -5 -8 -10 -17 -10 -15 0 -16 2 -3 10 19 12 20 12
20 0z m3057 -50 c-1 -20 -8 -25 -20 -14 -7 8 3 34 13 34 5 0 8 -9 7 -20z m43
-15 c20 -24 6 -28 -15 -5 -10 11 -13 20 -8 20 6 0 16 -7 23 -15z m-3960 -46
c0 -11 5 -17 10 -14 6 4 8 10 5 15 -3 5 -1 11 5 15 5 3 10 -1 10 -10 0 -12 6
-15 20 -10 17 5 20 2 20 -23 0 -29 0 -29 -60 -29 -33 0 -60 4 -60 10 0 5 -8 6
-17 2 -36 -14 -83 -11 -83 5 0 13 -1 13 -10 0 -8 -13 -11 -13 -22 -1 -7 8 -8
11 -2 8 7 -4 17 0 23 7 8 9 27 13 57 11 32 -2 44 1 44 11 0 8 7 14 15 14 8 0
15 -7 15 -16 0 -8 4 -13 10 -9 5 3 7 12 3 20 -3 8 0 15 6 15 6 0 11 -9 11 -21z
m3920 7 c0 -3 -4 -8 -10 -11 -5 -3 -10 -1 -10 4 0 6 5 11 10 11 6 0 10 -2 10
-4z m528 -31 c-7 -7 -48 7 -48 15 0 15 35 16 43 2 5 -7 7 -15 5 -17z m-4793
-3 c19 -11 19 -11 -5 -12 -15 0 -31 5 -38 12 -9 9 -12 9 -12 -1 0 -7 -5 -9
-11 -5 -8 5 -8 8 0 14 16 9 42 6 66 -8z m4296 -28 c-7 -13 -10 -14 -11 -5 0
11 -5 10 -20 -4 -11 -10 -23 -15 -28 -10 -4 4 -1 10 6 12 6 3 12 9 12 14 0 6
6 16 13 24 19 21 43 -6 28 -31z m292 32 c16 -12 15 -14 -14 -20 -21 -4 -38 -1
-52 10 l-22 16 22 -5 c13 -3 26 -1 29 4 7 12 16 11 37 -5z m-4503 -6 c0 -5 7
-10 16 -10 8 0 12 5 8 11 -4 7 1 10 11 7 10 -1 20 -9 23 -15 3 -10 -13 -13
-57 -13 -50 0 -59 3 -55 15 7 17 54 21 54 5z m5205 -57 c3 -32 10 -77 14 -100
l9 -43 -102 0 c-69 0 -96 3 -86 10 8 5 27 10 42 10 17 0 31 8 38 19 13 25 13
31 0 31 -5 0 -10 -7 -10 -15 0 -11 -12 -15 -52 -15 -62 0 -179 -19 -192 -31
-15 -13 -69 -10 -89 5 -14 11 -15 15 -5 19 7 3 2 6 -12 6 l-25 0 23 -18 c28
-25 28 -29 -3 -23 -14 2 -22 8 -19 13 3 5 -2 9 -10 9 -9 0 -16 -4 -16 -9 0 -5
-31 -10 -68 -13 -48 -2 -74 -9 -86 -21 -18 -17 -55 -24 -57 -9 -1 4 -3 44 -5
90 l-3 82 37 1 c85 2 193 9 287 19 55 6 132 13 170 15 91 7 158 15 164 21 2 2
15 4 27 4 20 0 23 -6 29 -57z m-7575 39 c0 -5 -7 -9 -15 -9 -8 0 -15 4 -15 9
0 4 7 8 15 8 8 0 15 -4 15 -8z m45 -2 c-3 -5 -11 -10 -16 -10 -6 0 -7 5 -4 10
3 6 11 10 16 10 6 0 7 -4 4 -10z m1289 -287 c2 -2 20 6 39 17 53 31 113 20
150 -28 15 -19 27 -45 27 -58 0 -43 -53 -73 -108 -60 -73 18 -102 23 -107 18
-7 -7 -6 -73 1 -111 l7 -31 122 0 c111 0 123 2 121 18 -1 18 23 25 25 7 1 -5
10 -22 20 -37 10 -14 19 -34 19 -45 0 -11 -3 -14 -8 -6 -5 8 -51 11 -150 10
-78 -1 -134 -5 -125 -8 15 -5 13 -7 -7 -10 -45 -7 -30 -34 20 -37 25 -2 49 -7
54 -12 5 -5 39 -6 76 -3 121 10 181 -15 77 -32 -37 -7 -38 -8 -35 -43 l3 -37
70 -2 c39 0 82 -2 98 -2 17 -1 27 -7 27 -16 0 -11 -11 -15 -40 -15 l-40 0 0
-129 c0 -71 3 -136 6 -145 3 -9 16 -16 29 -16 22 0 23 3 18 59 -3 33 -2 68 2
78 5 10 7 21 7 26 -1 4 2 7 7 7 15 0 21 -28 21 -96 0 -36 4 -64 10 -64 6 0 10
31 10 74 0 69 10 99 28 81 4 -3 6 -40 4 -81 l-3 -74 39 0 c22 0 45 -6 51 -14
11 -13 4 -15 -41 -14 -29 0 -81 0 -115 -1 l-63 -1 0 -75 0 -75 -82 0 c-46 -1
-126 -5 -179 -9 -53 -5 -117 -6 -143 -4 l-48 6 6 71 c3 39 5 83 6 98 0 20 8
31 32 42 43 22 50 20 73 -14 27 -40 55 -40 55 0 0 27 3 30 33 27 24 -2 33 -8
35 -25 2 -15 10 -22 25 -22 160 0 176 3 164 35 -6 13 -10 13 -27 3 -30 -19
-40 2 -40 82 0 89 19 118 45 70 13 -23 14 -21 15 38 l0 63 -47 -3 c-37 -2 -47
-6 -44 -18 2 -8 6 -48 9 -89 3 -59 2 -73 -9 -69 -10 3 -16 30 -19 89 l-5 84
-42 3 c-29 2 -43 8 -43 18 0 10 12 14 40 14 45 0 56 14 46 56 -8 29 9 28 -188
9 -26 -2 -58 -1 -70 4 l-23 8 24 8 c20 6 22 11 16 43 -3 21 -13 42 -20 48 -10
7 -16 42 -19 115 -2 57 -1 93 3 79 5 -17 9 3 13 65 3 55 12 103 22 123 9 18
12 32 6 32 -6 0 -8 10 -5 23 3 12 7 38 9 57 3 19 6 37 7 40 1 3 6 -44 11 -104
5 -61 10 -111 12 -113z m1044 171 c2 -12 12 -30 23 -40 25 -22 24 -40 -2 -47
-20 -5 -21 -10 -14 -76 l7 -71 -171 -2 c-94 -1 -201 -3 -238 -3 l-68 0 -5 99
c-3 54 -3 102 0 106 3 4 32 10 65 13 117 10 260 29 280 38 11 4 43 7 70 6 43
-2 50 -5 53 -23z m-1751 -50 c-1 -2 -8 0 -14 4 -7 5 -10 18 -6 32 7 25 7 25
14 -5 5 -16 7 -30 6 -31z m-77 16 c0 -5 -5 -10 -11 -10 -5 0 -7 5 -4 10 3 6 8
10 11 10 2 0 4 -4 4 -10z m-32 -57 l-12 -28 -4 28 c-2 16 -1 36 3 45 6 16 7
16 16 0 6 -11 5 -26 -3 -45z m1102 -28 c0 -30 -2 -55 -5 -55 -10 0 -35 60 -35
85 0 18 5 25 20 25 18 0 20 -7 20 -55z m5647 49 c-3 -3 -12 -4 -19 -1 -8 3 -5
6 6 6 11 1 17 -2 13 -5z m724 -74 c3 -41 2 -85 -2 -98 -8 -22 -10 -22 -39 -7
-34 18 -134 14 -171 -6 -17 -9 -24 -9 -27 0 -2 7 -17 9 -40 5 -20 -3 -46 -7
-57 -8 -11 -2 -45 3 -75 10 -62 14 -70 12 -63 -16 6 -23 -17 -36 -44 -25 -16
6 -15 8 7 21 23 13 20 13 -40 9 -36 -2 -67 -5 -70 -6 -7 -2 -8 -2 -56 5 -34 5
-43 3 -49 -11 -6 -12 -12 8 -20 62 -7 44 -11 83 -8 88 2 4 32 7 66 7 34 0 109
4 167 10 58 5 150 12 205 15 55 4 129 10 165 15 36 4 83 7 105 6 l40 -1 6 -75z
m-7444 55 c-4 -8 -3 -16 1 -19 4 -3 9 -21 10 -42 2 -30 0 -35 -10 -26 -11 8
-14 6 -16 -14 -1 -13 3 -24 8 -24 15 0 12 -17 -7 -36 -17 -17 -17 -18 0 -11
14 5 17 1 17 -28 0 -19 5 -35 11 -35 6 0 9 -9 6 -20 -3 -12 0 -20 7 -20 7 0
21 -9 31 -20 10 -11 13 -20 7 -20 -7 0 -12 -6 -12 -13 0 -9 13 -13 40 -13 34
1 42 -3 47 -21 3 -13 11 -23 19 -23 8 0 14 -6 14 -13 0 -10 -24 -14 -95 -16
-62 -1 -95 1 -95 8 0 6 -7 11 -15 11 -12 0 -15 10 -13 45 2 25 7 45 12 45 5 0
4 6 -2 13 -13 17 -12 190 2 199 8 5 7 8 -1 8 -18 0 -16 45 2 60 8 7 15 19 15
26 0 8 5 14 11 14 6 0 9 -7 6 -15z m923 -15 c0 -5 -5 -10 -11 -10 -5 0 -7 5
-4 10 3 6 8 10 11 10 2 0 4 -4 4 -10z m5740 -109 l0 -90 -52 -5 c-29 -3 -107
-8 -173 -10 -66 -2 -191 -10 -278 -17 -92 -7 -162 -8 -167 -3 -4 5 -11 41 -15
80 l-7 71 29 11 c15 6 118 18 228 27 110 9 211 17 225 19 14 2 67 4 118 5 l92
1 0 -89z m390 -61 c0 -5 -13 -10 -30 -10 -16 0 -30 5 -30 10 0 6 14 10 30 10
17 0 30 -4 30 -10z m-6580 -25 c0 -2 -11 -12 -25 -21 -29 -19 -55 -9 -28 12
17 13 53 19 53 9z m47 -56 c-1 -10 -6 -19 -12 -19 -18 0 -23 9 -18 30 6 24 32
15 30 -11z m6534 -16 c0 -26 2 -67 5 -91 4 -37 2 -43 -19 -51 -31 -12 -669
-31 -681 -20 -5 5 -11 44 -14 87 l-4 80 83 6 c46 4 136 11 199 17 133 11 175
13 323 17 l107 3 1 -48z m-6687 6 c-6 -11 -24 -2 -24 11 0 5 7 7 15 4 8 -4 12
-10 9 -15z m5719 -123 c16 -12 16 -14 1 -20 -26 -10 -34 -7 -34 14 0 23 8 25
33 6z m-4527 -113 c6 -128 9 -512 3 -518 -6 -5 -19 357 -19 519 0 108 10 108
16 -1z m-1053 40 c-24 -2 -62 -2 -85 0 -24 2 -5 4 42 4 47 0 66 -2 43 -4z
m6184 -33 c-2 -9 -1 -49 2 -88 l7 -71 -61 -5 c-106 -10 -615 -14 -620 -6 -10
16 -13 90 -4 84 5 -3 9 0 9 5 0 6 -4 11 -10 11 -5 0 -10 14 -10 30 0 24 4 30
23 31 12 0 33 2 47 4 14 2 102 6 195 9 219 8 399 17 404 22 9 8 22 -10 18 -26z
m-5194 -32 c-2 -5 -42 -8 -88 -8 -84 0 -85 0 -74 23 9 20 19 23 77 26 37 1 69
5 72 8 6 6 18 -39 13 -49z m4472 -18 c3 -5 1 -10 -4 -10 -6 0 -11 5 -11 10 0
6 2 10 4 10 3 0 8 -4 11 -10z m-6261 -36 c3 -9 6 -72 6 -140 l0 -124 25 0 c14
0 25 -4 25 -10 0 -5 -12 -10 -26 -10 -22 0 -24 -3 -18 -22 12 -33 8 -153 -6
-177 -6 -12 -21 -21 -35 -21 -34 0 -55 -10 -55 -26 0 -8 -6 -11 -15 -8 -8 4
-15 1 -15 -5 0 -12 -89 -14 -130 -2 -20 6 -24 13 -22 35 2 16 13 45 26 65 27
44 28 88 2 107 -27 20 -44 18 -51 -6 -5 -14 -12 -19 -24 -15 -23 7 -45 -41
-36 -77 9 -34 -9 -44 -25 -14 -9 18 -9 28 0 46 8 15 8 20 1 16 -17 -11 -13 10
4 24 8 7 15 19 15 26 0 8 4 14 9 14 21 0 30 76 21 167 -3 28 -2 49 2 47 4 -3
8 -14 8 -25 0 -12 4 -17 11 -14 5 4 8 12 6 18 -2 7 10 20 27 31 21 13 31 15
34 7 3 -8 10 -7 24 5 16 15 21 16 28 5 6 -11 11 -9 20 9 7 12 16 18 20 14 7
-7 28 -234 30 -319 1 -19 1 -19 11 -2 6 10 8 33 5 51 -7 37 1 51 20 35 8 -7
14 -6 20 2 4 8 3 9 -4 5 -14 -8 -27 37 -18 60 5 14 9 14 23 3 12 -10 15 -10 9
-1 -4 7 -3 27 3 45 12 37 18 81 20 150 1 46 13 62 25 31z m1761 6 c29 -7 29
-8 -10 -10 -22 -1 -44 -3 -50 -5 -5 -1 -15 -3 -22 -3 -8 -2 -10 -17 -6 -52 3
-30 2 -50 -4 -50 -13 0 -33 45 -33 76 0 13 -7 27 -15 30 -54 21 67 33 140 14z
m-1475 -110 c2 -157 -2 -150 86 -150 43 0 74 -4 74 -10 0 -6 -31 -10 -74 -10
l-74 0 0 -109 c-1 -99 1 -111 18 -116 10 -3 21 -17 24 -30 3 -13 18 -36 33
-49 22 -20 24 -27 14 -40 -13 -15 -3 -42 27 -74 10 -11 11 -17 1 -26 -8 -8
-13 -8 -16 2 -3 6 -11 12 -18 12 -7 0 -15 6 -18 14 -4 9 -14 12 -26 9 -15 -4
-21 -1 -21 11 0 9 4 16 9 16 5 0 7 9 4 20 -5 17 -8 18 -21 8 -13 -11 -15 -10
-9 6 7 19 -33 119 -53 131 -16 10 -12 28 5 21 12 -4 15 2 13 29 -1 19 -6 35
-10 35 -5 0 -4 9 2 19 5 11 9 38 7 60 -2 37 -4 41 -29 41 -42 0 -43 18 -1 22
l38 3 3 134 c1 73 4 132 7 130 2 -3 5 -52 5 -109z m630 -6 l0 -94 -30 0 -30 0
0 63 c0 59 2 65 26 76 21 9 25 16 20 37 -5 17 -3 23 4 19 6 -3 10 -46 10 -101z
m129 20 c1 -24 6 -31 18 -30 12 1 20 -9 24 -29 l7 -30 1 33 c1 25 5 32 21 32
11 0 20 -6 20 -12 0 -9 3 -9 8 -2 4 6 15 13 25 17 9 3 17 13 17 22 0 27 29 16
33 -12 4 -26 4 -26 6 5 1 25 5 32 21 32 18 0 20 -7 20 -64 l0 -64 -81 -1 c-45
-1 -85 -3 -89 -6 -15 -10 -119 7 -124 20 -2 7 -2 40 1 74 4 43 10 61 20 61 8
0 11 5 7 12 -5 8 -2 9 9 5 9 -3 16 -3 16 1 -1 4 0 12 1 17 4 15 17 -45 19 -81z
m-469 42 c0 -36 -17 -57 -29 -37 -12 18 0 71 15 71 9 0 14 -12 14 -34z m790
-5 c0 -11 -4 -23 -10 -26 -6 -4 -10 5 -10 19 0 14 5 26 10 26 6 0 10 -9 10
-19z m4900 -12 c0 -5 -4 -9 -10 -9 -5 0 -10 7 -10 16 0 8 5 12 10 9 6 -3 10
-10 10 -16z m1110 11 c0 -5 -4 -10 -10 -10 -5 0 -10 5 -10 10 0 6 5 10 10 10
6 0 10 -4 10 -10z m-6530 -90 c0 -47 -3 -60 -15 -60 -11 0 -15 13 -15 53 0 30
3 57 7 60 17 17 23 2 23 -53z m6527 -14 c0 -22 2 -57 6 -76 11 -57 1 -63 -102
-61 -115 3 -140 5 -171 18 -18 7 -34 6 -58 -4 -19 -8 -42 -11 -51 -8 -29 12
-131 11 -131 -1 0 -16 -79 -11 -89 5 -6 10 -10 10 -16 2 -3 -7 -24 -11 -46 -9
-35 2 -44 8 -40 31 0 4 -3 7 -8 7 -5 0 -8 29 -8 65 l2 66 45 -2 c55 -2 604 11
607 15 2 1 16 1 32 -2 27 -4 29 -7 28 -46z m-757 10 c4 -13 10 -54 11 -92 l3
-69 -203 -2 -203 -3 6 28 c4 15 7 47 6 72 0 25 4 51 9 59 6 10 50 14 172 18
90 3 166 7 168 9 10 10 22 2 31 -20z m-5810 -6 c0 -5 -4 -10 -9 -10 -6 0 -13
5 -16 10 -3 6 1 10 9 10 9 0 16 -4 16 -10z m798 -90 c-5 -55 -23 -41 -26 20
-2 51 -1 54 13 35 9 -12 15 -35 13 -55z m852 -15 c7 -8 20 -15 30 -15 14 0 19
-12 25 -56 8 -66 0 -76 -60 -72 -36 3 -40 5 -37 28 2 14 6 49 9 78 5 54 12 62
33 37z m-652 -39 c8 -9 -27 -19 -44 -12 -22 8 -8 26 18 21 11 -3 23 -7 26 -9z
m-1278 -10 c0 -7 -5 -26 -10 -42 -9 -26 -16 -30 -58 -33 -110 -7 -107 -7 -110
17 -3 20 0 22 47 22 28 0 51 -4 51 -10 0 -19 17 -10 30 18 7 15 13 29 12 32 0
3 8 7 19 7 10 1 19 -4 19 -11z m-333 -11 c9 -25 -4 -29 -17 -6 -7 15 -7 21 0
21 6 0 13 -7 17 -15z m1477 -125 c4 -69 3 -118 -4 -130 -15 -27 -13 -30 13
-22 19 7 54 8 107 3 13 -1 13 -3 1 -10 -8 -5 -35 -7 -61 -4 -51 5 -62 -2 -53
-35 4 -18 13 -22 44 -22 l39 0 0 -69 0 -68 -41 -7 -40 -6 3 -43 3 -42 70 2
c49 2 64 0 50 -6 -11 -5 -41 -10 -67 -10 -26 -1 -49 -5 -52 -10 -7 -10 -56 -2
-56 10 0 5 7 9 15 9 15 0 18 8 17 45 0 11 -2 71 -3 133 -3 100 -5 112 -21 112
-10 0 -18 5 -18 10 0 6 6 10 14 10 11 0 12 10 5 47 -6 30 -6 59 1 77 5 16 10
53 10 82 0 97 17 57 24 -56z m6126 56 c0 -28 4 -65 9 -83 6 -22 6 -37 -3 -48
-11 -15 -51 -16 -438 -13 -382 4 -428 6 -443 21 -15 16 -15 17 2 19 10 1 -9 4
-42 7 -65 7 -85 3 -64 -10 16 -10 15 -10 -64 -14 -47 -2 -56 0 -47 10 7 9 23
12 46 8 28 -5 34 -2 34 12 0 15 -6 16 -42 10 -24 -4 -111 -9 -193 -11 l-150
-5 -39 29 c-28 21 -40 38 -42 60 -2 17 1 34 6 37 5 3 159 7 340 9 182 2 332 5
334 7 3 2 183 5 400 5 l396 1 0 -51z m-6871 -43 l-1 -78 -16 62 c-12 51 -13
65 -2 78 7 8 14 15 16 15 2 0 3 -35 3 -77z m5368 -5 c1 -67 -1 -78 -15 -79
-84 -5 -101 -5 -96 2 3 5 1 9 -5 9 -5 0 -11 -6 -14 -12 -2 -7 -8 -10 -12 -6
-11 10 14 38 34 38 13 1 13 3 -4 16 -14 10 -16 17 -8 22 6 4 14 21 18 37 12
56 13 56 57 53 l43 -3 2 -77z m-6084 -17 c-6 -10 -41 32 -45 54 -4 19 0 25 16
27 18 3 22 -3 26 -37 3 -22 4 -42 3 -44z m1917 69 c0 -5 -7 -10 -16 -10 -12 0
-15 -6 -10 -25 5 -20 3 -25 -14 -25 -32 0 -35 3 -38 37 -3 32 -3 33 37 33 23
0 41 -4 41 -10z m-1783 -62 c-3 -8 -6 -5 -6 6 -1 11 2 17 5 13 3 -3 4 -12 1
-19z m219 -3 c-3 -8 -1 -15 3 -15 5 0 11 6 14 13 2 6 6 0 9 -16 5 -23 3 -27
-13 -22 -14 5 -17 2 -13 -9 4 -10 1 -16 -7 -16 -10 0 -10 -3 -1 -12 7 -7 12
-16 12 -20 0 -10 -27 -11 -33 0 -2 4 -2 1 -1 -5 2 -7 -2 -13 -9 -14 -9 0 -9
-2 1 -6 6 -2 12 -14 12 -26 0 -20 0 -20 -15 -1 -18 24 -19 58 -1 108 9 25 16
34 20 25 3 -8 4 -4 2 9 -3 15 1 22 11 22 9 0 13 -6 9 -15z m5798 -30 c3 -10
-1 -15 -14 -15 -20 0 -33 13 -23 24 11 11 31 6 37 -9z m-4759 -16 c9 -13 9
-78 1 -86 -10 -11 -16 2 -22 50 -5 44 6 62 21 36z m-175 -41 c0 -42 12 -68 31
-68 10 0 21 5 25 11 4 8 9 8 17 0 6 -6 25 -11 41 -11 52 0 15 -19 -44 -22 -48
-3 -55 -6 -58 -25 -4 -24 7 -28 61 -24 26 2 27 1 27 -47 l0 -50 -167 -6 c-93
-4 -199 -8 -238 -9 l-70 -2 -3 39 c-2 21 1 43 6 48 14 14 42 -19 43 -50 1 -19
4 -15 8 13 8 53 35 55 39 3 2 -21 7 -38 13 -38 7 0 7 75 0 120 -1 3 -26 3 -56
2 -33 -3 -55 0 -55 6 0 16 13 21 61 26 36 3 45 8 47 25 2 12 -2 28 -8 36 -9
11 -7 15 12 20 40 10 150 22 211 24 53 1 57 -1 57 -21z m-1330 -23 c0 -20 -4
-24 -22 -22 -12 2 -24 10 -26 17 -3 8 0 10 7 6 6 -4 14 0 17 8 9 25 24 19 24
-9z m2037 5 c-3 -13 0 -20 9 -20 24 0 15 -30 -12 -40 -32 -13 -31 -13 -38 6
-4 10 1 22 11 30 17 12 17 13 1 14 -25 0 -11 30 14 30 15 0 19 -5 15 -20z
m307 -11 c3 -3 -40 -7 -97 -8 -56 -2 -113 -4 -126 -5 -13 0 -26 4 -27 9 -4 11
239 15 250 4z m3571 -9 c8 0 16 -4 19 -9 3 -5 -6 -8 -19 -8 -19 0 -25 5 -24
21 0 11 3 15 6 9 2 -7 11 -13 18 -13z m-5431 -72 c4 -29 -13 -42 -41 -31 -10
4 -14 2 -10 -4 3 -5 1 -10 -6 -10 -7 0 -25 -4 -42 -8 -21 -5 -27 -4 -20 3 16
16 85 42 85 31 0 -5 4 -9 8 -9 5 0 7 26 5 58 -2 49 -1 53 7 27 6 -16 12 -42
14 -57z m6050 40 c3 -18 7 -59 10 -92 l5 -59 -202 8 c-111 4 -253 7 -314 7
-92 -1 -113 1 -113 13 0 8 11 22 24 30 13 9 26 25 29 37 4 14 11 19 22 15 12
-5 14 -1 9 18 -4 16 -2 25 6 25 7 0 10 6 7 14 -5 13 32 15 253 16 l259 1 5
-33z m750 23 c3 -4 7 -23 10 -42 2 -19 7 -60 11 -93 l8 -58 -274 6 c-237 6
-460 15 -466 20 -1 0 -2 30 -4 66 -1 36 -6 72 -10 81 -5 9 -5 19 -2 23 10 9
721 7 727 -3z m-7094 -45 c-5 -15 -10 -45 -10 -67 0 -37 -2 -40 -22 -34 -16 6
-20 4 -16 -7 3 -8 0 -22 -8 -33 -13 -17 -14 -17 -14 -2 0 10 -10 22 -22 27
-22 8 -22 9 10 21 29 12 32 17 32 56 0 36 4 45 28 57 33 17 35 16 22 -18z
m486 -1 c16 -24 16 -27 -2 -40 -26 -20 -31 -19 -36 9 -4 22 6 56 17 56 3 0 12
-11 21 -25z m831 19 c-3 -3 -12 -4 -19 -1 -8 3 -5 6 6 6 11 1 17 -2 13 -5z
m-1792 -34 c3 -5 -3 -10 -15 -10 -12 0 -18 5 -15 10 3 6 10 10 15 10 5 0 12
-4 15 -10z m2065 -22 c0 -5 -5 -8 -10 -8 -6 0 -8 -11 -4 -25 5 -19 2 -25 -10
-25 -10 0 -16 9 -16 23 0 12 -3 32 -6 44 -6 21 -4 21 20 10 14 -7 26 -15 26
-19z m-1020 13 c0 -5 -9 -11 -20 -14 -13 -3 -20 0 -20 9 0 8 9 14 20 14 11 0
20 -4 20 -9z m949 -85 c1 -38 -3 -55 -12 -59 -11 -4 -16 9 -20 53 -4 33 -4 67
0 76 11 30 30 -10 32 -70z m-219 -11 c0 -67 -9 -91 -24 -66 -9 13 -24 130 -18
136 3 3 14 5 24 5 16 0 18 -9 18 -75z m52 65 c2 -5 1 -37 0 -70 -3 -43 -8 -60
-18 -60 -10 0 -14 12 -14 39 0 21 -3 53 -6 70 -6 27 -4 31 14 31 11 0 22 -4
24 -10z m-742 -51 c10 -18 9 -20 -7 -17 -10 2 -19 11 -21 21 -5 24 15 21 28
-4z m-555 1 c-3 -5 -12 -10 -18 -10 -7 0 -6 4 3 10 19 12 23 12 15 0z m2375
-72 c0 -7 -8 -10 -26 -7 -4 0 -11 -5 -15 -13 -8 -11 -10 -11 -18 0 -5 9 -1 21
13 36 18 20 23 21 34 7 6 -8 12 -18 12 -23z m3575 13 c3 -6 8 -47 12 -92 l6
-82 -204 8 c-112 4 -212 8 -222 7 -14 -1 -15 3 -7 18 5 10 19 22 30 25 11 3
20 14 20 24 0 10 10 23 23 29 20 10 20 11 3 11 -20 1 -20 1 -1 15 11 8 23 12
27 10 5 -3 8 4 8 15 0 20 5 21 149 21 84 0 152 -4 156 -9z m583 -5 c73 -2 135
-5 137 -7 2 -2 6 -43 9 -91 7 -103 5 -105 -96 -88 -34 5 -83 10 -109 10 -25 0
-50 5 -56 11 -8 8 -17 8 -33 -1 -14 -8 -42 -9 -81 -5 -59 7 -68 12 -50 31 6 5
-16 9 -60 10 -38 1 -69 -3 -69 -7 0 -5 7 -9 15 -9 8 0 15 -5 15 -10 0 -7 -30
-10 -82 -8 l-83 3 -5 54 c-3 29 -4 68 -2 86 l4 34 207 -5 c113 -2 266 -6 339
-8z m-4922 -4 c7 -4 11 -18 10 -32 -1 -14 0 -29 2 -34 3 -5 5 -27 5 -48 0 -35
-13 -57 -34 -58 -7 0 -19 31 -23 60 -5 33 -18 60 -27 60 -6 0 -7 5 -4 10 3 6
1 10 -4 10 -6 0 -11 -20 -11 -45 0 -33 4 -45 15 -45 9 0 15 -9 15 -22 0 -19
-2 -20 -10 -8 -12 19 -12 20 -16 -80 -2 -47 -4 -98 -4 -115 -1 -25 -3 -27 -9
-10 -10 29 -14 355 -4 355 5 0 14 -5 21 -12 9 -9 13 -7 18 5 6 17 40 22 60 9z
m5760 -1 c85 -1 90 -8 98 -120 l6 -94 -60 7 c-53 6 -259 16 -332 16 -15 0 -34
8 -43 17 -16 15 -18 15 -26 0 -8 -14 -25 -16 -109 -14 -62 2 -104 8 -114 16
-13 11 -16 11 -16 0 0 -9 -3 -10 -8 -4 -4 6 -19 18 -33 27 -23 15 -27 25 -31
80 -3 35 -4 65 -3 68 3 4 471 5 671 1z m-7288 -17 c-4 -3 5 -31 19 -62 13 -31
28 -66 33 -77 32 -75 40 -94 51 -127 7 -21 16 -38 20 -38 4 0 10 -15 13 -34 4
-18 26 -74 50 -124 25 -49 42 -93 39 -96 -4 -3 1 -14 9 -23 9 -10 23 -39 32
-66 17 -51 56 -147 87 -215 10 -23 20 -50 22 -60 1 -9 5 -21 8 -27 4 -5 9 -23
13 -40 10 -41 53 -150 82 -208 13 -27 24 -57 24 -66 0 -9 5 -22 12 -29 7 -7 8
-12 4 -12 -5 0 -4 -6 1 -12 6 -7 13 -22 17 -33 l7 -20 -19 20 c-10 11 -39 71
-63 132 -24 62 -48 113 -52 113 -5 0 -15 7 -23 15 -10 10 -11 15 -3 15 21 0
-9 96 -62 194 -6 10 -12 28 -15 40 -2 11 -8 30 -13 41 -5 11 -16 41 -26 68 -9
26 -21 45 -26 42 -5 -4 -6 0 -4 7 6 14 -69 216 -86 232 -5 6 -9 23 -9 38 0 15
-4 28 -10 28 -5 0 -10 7 -10 17 0 9 -11 39 -24 67 -24 52 -98 242 -111 284 -4
14 -2 22 6 22 7 0 10 -3 7 -6z m2180 -11 c16 -16 15 -16 -8 -10 -14 4 -29 7
-33 7 -5 0 -5 5 -2 10 9 15 24 12 43 -7z m-1168 -19 c0 -14 -4 -23 -10 -19 -5
3 -10 15 -10 26 0 10 5 19 10 19 6 0 10 -12 10 -26z m1159 -8 c16 -19 21 -50
11 -66 -5 -8 -4 -22 1 -32 7 -13 5 -23 -10 -39 -25 -27 -48 -16 -28 14 9 14
11 32 6 49 -4 15 -4 29 -1 32 3 3 0 6 -8 6 -10 0 -10 3 1 16 10 13 10 17 -2
25 -12 7 -11 9 2 9 9 0 22 -6 28 -14z m180 -34 c0 -9 3 -29 7 -45 5 -22 4 -26
-10 -21 -9 3 -14 9 -11 14 2 4 0 21 -4 38 -9 31 -5 46 10 37 4 -3 8 -13 8 -23z
m-1239 -32 c0 -5 -16 -10 -35 -10 -19 0 -35 5 -35 10 0 6 16 10 35 10 19 0 35
-4 35 -10z m47 4 c-3 -3 -12 -4 -19 -1 -8 3 -5 6 6 6 11 1 17 -2 13 -5z m233
-13 c0 -12 -28 -18 -60 -12 -23 4 -23 5 -5 12 28 11 65 11 65 0z m-615 -11 c3
-5 2 -10 -4 -10 -5 0 -13 5 -16 10 -3 6 -2 10 4 10 5 0 13 -4 16 -10z m88 3
c-7 -2 -19 -2 -25 0 -7 3 -2 5 12 5 14 0 19 -2 13 -5z m428 -60 c-10 -17 -10
-16 -11 3 0 23 13 41 18 25 2 -6 -1 -18 -7 -28z m5374 27 c3 -5 -3 -10 -14
-10 -11 0 -23 5 -26 10 -3 6 3 10 14 10 11 0 23 -4 26 -10z m-5046 -72 c17
-15 31 -30 31 -33 0 -3 0 -10 0 -16 0 -5 5 -7 12 -3 8 5 9 2 5 -9 -4 -11 -1
-17 8 -17 9 0 15 -10 16 -22 0 -13 3 -18 5 -12 7 17 46 4 40 -12 -3 -8 0 -11
10 -7 8 3 14 2 13 -3 -1 -5 -1 -18 0 -29 1 -15 3 -17 10 -6 5 8 11 9 15 3 11
-18 -23 -22 -36 -4 -7 9 -25 23 -40 31 -15 8 -30 22 -34 33 -3 10 -13 18 -23
18 -16 0 -69 50 -53 50 4 1 -3 9 -16 20 -12 10 -25 33 -29 51 -6 32 -6 32 14
13 12 -10 35 -31 52 -46z m3922 51 c4 -75 -1 -154 -10 -154 -6 0 -11 5 -12 10
0 6 -10 14 -22 19 -19 8 -20 10 -4 13 24 6 22 22 -3 20 -11 -1 -20 -7 -20 -15
0 -10 -4 -10 -16 2 -21 21 -28 20 -48 -6 -15 -20 -16 -21 -11 -3 4 11 8 37 10
58 4 47 5 49 51 56 59 10 84 10 85 0z m404 -4 c132 -4 250 -8 262 -11 27 -5
31 -19 35 -114 l3 -75 -85 2 c-196 5 -569 28 -577 37 -2 2 -6 40 -8 84 l-5 81
48 4 c26 2 56 2 67 0 11 -1 128 -5 260 -8z m-4798 -17 c-3 -8 -6 -5 -6 6 -1
11 2 17 5 13 3 -3 4 -12 1 -19z m-492 -18 c17 -34 19 -50 5 -50 -5 0 -10 8
-10 18 0 15 -2 15 -10 2 -8 -11 -9 -7 -4 14 5 19 2 31 -7 37 -10 6 -10 9 -2 9
7 0 19 -13 28 -30z m825 20 c0 -5 -2 -10 -4 -10 -3 0 -8 5 -11 10 -3 6 -1 10
4 10 6 0 11 -4 11 -10z m-680 -10 c0 -5 -4 -10 -10 -10 -5 0 -10 5 -10 10 0 6
5 10 10 10 6 0 10 -4 10 -10z m1360 0 c10 -1 11 -3 3 -7 -7 -2 -13 -13 -13
-23 0 -10 -5 -22 -10 -25 -6 -4 -8 -11 -5 -16 4 -5 1 -9 -4 -9 -6 0 -11 -6
-11 -12 -1 -18 -36 -58 -50 -58 -6 0 -9 -4 -6 -9 3 -5 -1 -11 -8 -14 -24 -9
-25 16 -3 53 12 19 24 37 28 40 4 3 12 24 19 46 9 30 17 41 29 39 9 -2 23 -4
31 -5z m4515 -5 c33 -2 115 -4 182 -5 67 0 125 -5 128 -10 10 -16 18 -197 9
-202 -9 -5 -119 4 -289 22 -143 16 -278 23 -367 21 -43 -1 -78 2 -79 6 0 4 -2
48 -5 97 l-5 88 183 -7 c101 -4 210 -9 243 -10z m-5536 -19 c-3 -3 -23 -8 -45
-11 -21 -2 -61 -9 -89 -14 -127 -25 -265 -36 -265 -21 0 14 69 27 179 35 41 2
75 6 77 8 2 1 36 4 76 6 40 1 70 0 67 -3z m341 -6 c0 -5 -2 -10 -4 -10 -3 0
-8 5 -11 10 -3 6 -1 10 4 10 6 0 11 -4 11 -10z m17 -12 c-3 -8 -6 -5 -6 6 -1
11 2 17 5 13 3 -3 4 -12 1 -19z m-947 -99 c0 -5 -4 -9 -10 -9 -5 0 -10 7 -10
16 0 8 5 12 10 9 6 -3 10 -10 10 -16z m898 -150 c2 -82 0 -119 -7 -115 -5 4
-8 13 -4 21 3 9 1 21 -5 28 -8 10 -9 48 -3 186 1 8 4 11 8 7 4 -3 9 -61 11
-127z m527 101 c3 -6 -4 -10 -17 -10 -18 0 -20 2 -8 10 19 12 18 12 25 0z
m-106 -26 c-13 -7 -19 -14 -14 -14 6 0 3 -5 -5 -10 -12 -8 -12 -10 -1 -10 8 0
11 -3 8 -7 -4 -3 1 -12 11 -19 22 -17 83 -7 100 18 11 14 17 16 33 7 16 -8 18
-13 8 -25 -6 -8 -16 -14 -22 -14 -5 0 -27 -16 -48 -35 -49 -44 -69 -45 -69 -4
0 21 -8 37 -25 51 -14 11 -25 26 -25 33 0 21 40 54 57 48 12 -5 10 -9 -8 -19z
m4431 11 c167 -6 319 -13 415 -20 33 -2 105 -7 160 -11 55 -3 102 -8 105 -9 3
-2 95 -6 205 -10 139 -5 204 -11 213 -20 9 -8 15 -45 17 -105 l4 -93 -45 7
c-25 3 -50 9 -56 12 -5 4 -49 6 -97 7 -47 0 -90 2 -94 4 -12 7 -97 10 -103 4
-10 -10 -40 -10 -101 -1 -34 6 -108 12 -163 15 -56 2 -108 10 -116 16 -11 9
-14 8 -14 -1 0 -10 -21 -11 -87 -6 -49 3 -149 8 -223 11 -152 6 -356 23 -382
31 -15 4 -18 17 -18 74 0 38 -3 75 -6 83 -8 21 22 26 136 21 52 -2 165 -6 250
-9z m-6253 -37 c-3 -7 -5 -2 -5 12 0 14 2 19 5 13 2 -7 2 -19 0 -25z m-267 2
c0 -11 -4 -20 -9 -20 -11 0 -22 26 -14 34 12 12 23 5 23 -14z m4110 -10 c0 -5
-4 -10 -10 -10 -5 0 -10 5 -10 10 0 6 5 10 10 10 6 0 10 -4 10 -10z m-4091
-75 c0 -5 -4 -3 -9 5 -5 8 -9 22 -9 30 0 16 17 -16 18 -35z m998 -17 c7 -14 9
-29 6 -32 -7 -7 -28 31 -37 70 -7 27 -6 27 6 9 8 -11 19 -32 25 -47z m-712 43
c3 -5 1 -12 -4 -15 -5 -3 -11 1 -15 9 -6 16 9 21 19 6z m-145 -30 c0 -10 11
-27 25 -37 32 -24 32 -37 0 -54 -22 -12 -28 -12 -42 3 -16 16 -16 17 0 17 9 0
17 5 17 10 0 6 -4 10 -10 10 -5 0 -10 9 -10 20 0 11 -4 20 -10 20 -5 0 -10 7
-10 15 0 8 9 15 20 15 13 0 20 -7 20 -19z m1070 -43 c0 -7 -11 -14 -25 -14
-15 -1 -25 3 -25 12 0 8 10 14 25 14 14 0 25 -6 25 -12z m-60 -7 c0 -11 -25
-21 -55 -21 -23 0 -39 12 -30 22 9 9 85 8 85 -1z m4935 -26 c88 -5 370 -27
371 -29 1 0 4 -43 7 -93 l7 -93 -28 1 c-25 1 -115 13 -169 23 -12 2 -36 11
-53 20 -27 13 -32 13 -37 0 -6 -17 -30 -19 -35 -2 -3 9 -15 9 -51 -1 -39 -11
-52 -11 -79 0 -19 8 -65 12 -120 11 -63 -1 -90 2 -93 11 -2 6 -6 47 -10 90
l-5 78 122 -6 c68 -4 146 -8 173 -10z m-4438 -47 c-3 -8 -6 -5 -6 6 -1 11 2
17 5 13 3 -3 4 -12 1 -19z m5068 7 c99 -3 218 -10 265 -15 47 -6 112 -10 145
-10 33 0 66 -4 73 -8 8 -5 15 -44 19 -104 5 -84 4 -96 -11 -101 -10 -4 -21 -5
-25 -3 -7 5 -183 21 -321 31 -212 14 -338 25 -353 31 -9 3 -17 16 -18 28 0 11
-3 48 -5 81 -6 74 0 89 29 81 12 -3 103 -8 202 -11z m-5068 -67 c-3 -7 -5 -2
-5 12 0 14 2 19 5 13 2 -7 2 -19 0 -25z m-1515 -83 c-6 -34 -12 -32 -12 6 0
16 4 28 9 25 4 -3 6 -17 3 -31z m64 21 c18 -14 18 -15 1 -21 -9 -4 -24 -2 -32
5 -33 28 -5 42 31 16z m2962 2 c17 -17 15 -45 -4 -52 -24 -9 -24 -9 -24 29 0
37 8 43 28 23z m-1768 -7 c0 -5 3 -16 6 -25 4 -10 1 -16 -9 -16 -20 0 -30 17
-23 35 6 16 26 21 26 6z m265 -39 c-11 -11 -25 15 -19 33 7 17 8 16 16 -5 5
-13 6 -25 3 -28z m-1636 -7 c0 -5 -4 -3 -9 5 -5 8 -9 22 -9 30 0 16 17 -16 18
-35z m1096 -5 c14 -27 21 -59 10 -49 -8 9 -35 79 -30 79 2 0 11 -13 20 -30z
m-921 -32 c9 -36 7 -78 -4 -78 -5 0 -10 8 -10 19 0 10 -3 33 -6 50 -7 36 10
43 20 9z m84 -123 c-3 -3 -9 2 -12 12 -6 14 -5 15 5 6 7 -7 10 -15 7 -18z m56
-197 c27 -49 34 -82 15 -76 -20 7 -60 89 -53 110 7 23 5 25 38 -34z m-178 -26
c-6 -6 -26 43 -25 61 0 7 7 -3 15 -22 8 -18 13 -36 10 -39z m404 -14 c0 -19
-2 -20 -10 -8 -13 19 -13 30 0 30 6 0 10 -10 10 -22z m-390 -33 c0 -14 -4 -25
-9 -25 -4 0 -6 11 -3 25 2 14 6 25 8 25 2 0 4 -11 4 -25z m1128 -20 c-3 -3 -9
2 -12 12 -6 14 -5 15 5 6 7 -7 10 -15 7 -18z m-1051 -11 c-3 -3 -12 -4 -19 -1
-8 3 -5 6 6 6 11 1 17 -2 13 -5z m63 -10 c0 -2 -9 -4 -21 -4 -11 0 -18 4 -14
10 5 8 35 3 35 -6z m-390 -1197 c0 5 7 10 15 10 8 0 12 -3 10 -7 -2 -3 17 -7
43 -8 25 -1 50 -6 56 -12 9 -9 -4 -15 -27 -11 -40 7 -66 7 -61 0 3 -5 1 -9 -5
-9 -5 0 -13 5 -16 10 -4 6 -10 8 -15 5 -5 -3 -14 5 -21 17 -11 21 -11 22 4 9
10 -7 17 -9 17 -4z m-50 -36 c0 -14 -18 -23 -31 -15 -8 4 -7 9 2 15 18 11 29
11 29 0z m193 -6 c-3 -9 -8 -14 -10 -11 -3 3 -2 9 2 15 9 16 15 13 8 -4z m422
-213 c17 -12 57 -121 51 -138 -4 -11 -2 -15 6 -11 9 3 14 -8 16 -34 3 -42 -11
-51 -35 -21 -12 16 -13 15 -11 -8 2 -20 8 -25 30 -24 18 0 30 -7 37 -23 8 -18
8 -23 -4 -23 -17 0 -16 -40 3 -59 8 -8 12 -25 9 -37 -2 -13 0 -21 4 -18 5 3 9
1 9 -3 0 -5 -9 -14 -19 -20 -18 -11 -20 -8 -27 30 -7 42 -8 42 -18 15 -11 -32
-23 -35 -42 -10 -12 15 -13 14 -4 -11 13 -37 14 -37 -14 -24 -23 11 -25 17
-22 74 1 34 5 65 9 69 11 11 8 49 -5 62 -8 8 -8 12 -1 12 18 0 22 37 7 66 -17
31 -17 37 -4 29 6 -3 10 3 10 14 0 11 5 23 10 26 6 3 10 16 9 28 0 21 -1 21
-9 2 -6 -16 -9 -17 -13 -5 -7 19 -5 50 2 50 3 0 11 -4 16 -8z m332 -254 c-3
-8 -6 -5 -6 6 -1 11 2 17 5 13 3 -3 4 -12 1 -19z m-217 -203 c0 -5 -5 -3 -10
5 -5 8 -10 20 -10 25 0 6 5 3 10 -5 5 -8 10 -19 10 -25z m-120 -5 c0 -5 -4
-10 -10 -10 -5 0 -10 5 -10 10 0 6 5 10 10 10 6 0 10 -4 10 -10z m35 -11 c4
-6 13 -8 21 -5 7 3 16 1 19 -4 3 -5 -6 -12 -20 -16 -20 -5 -24 -11 -20 -28 5
-19 5 -19 -5 -3 -6 9 -9 21 -5 26 3 5 1 12 -5 16 -13 8 -13 25 -1 25 6 0 13
-5 16 -11z m73 -50 c2 -13 9 -30 15 -37 8 -11 6 -11 -16 -1 -15 7 -27 16 -27
21 0 5 5 6 10 3 6 -3 10 0 10 8 0 7 -7 14 -15 14 -8 0 -15 -7 -15 -16 0 -12
-2 -13 -12 -2 -11 10 -9 15 7 27 25 19 39 13 43 -17z m-99 -35 c-13 -16 -22
-12 -25 10 -1 9 5 12 17 9 15 -4 17 -8 8 -19z"/>
<path d="M6465 8760 c-3 -5 -1 -10 4 -10 6 0 11 5 11 10 0 6 -2 10 -4 10 -3 0
-8 -4 -11 -10z"/>
<path d="M4625 7470 c-19 -8 -19 -9 3 -9 12 -1 22 4 22 9 0 6 -1 10 -2 9 -2 0
-12 -4 -23 -9z"/>
<path d="M4500 7410 c0 -5 7 -10 15 -10 8 0 15 5 15 10 0 6 -7 10 -15 10 -8 0
-15 -4 -15 -10z"/>
<path d="M485 6559 c-11 -17 -2 -18 19 -3 17 12 17 14 4 14 -9 0 -20 -5 -23
-11z"/>
<path d="M5095 6710 c3 -5 11 -10 16 -10 6 0 7 5 4 10 -3 6 -11 10 -16 10 -6
0 -7 -4 -4 -10z"/>
<path d="M4780 6639 c0 -5 5 -7 10 -4 6 3 10 8 10 11 0 2 -4 4 -10 4 -5 0 -10
-5 -10 -11z"/>
<path d="M4835 6640 c3 -5 15 -10 26 -10 11 0 17 5 14 10 -3 6 -15 10 -26 10
-11 0 -17 -4 -14 -10z"/>
<path d="M3970 5751 c-14 -27 -13 -41 4 -35 15 6 28 54 15 54 -5 0 -13 -9 -19
-19z"/>
<path d="M4541 5756 c-12 -15 -2 -27 34 -40 19 -7 19 -8 -5 -27 l-25 -20 99 6
c74 3 111 1 144 -11 26 -8 58 -12 75 -8 30 6 74 6 117 0 14 -3 35 -5 48 -5 13
-1 22 -7 22 -17 0 -13 7 -15 35 -10 20 4 44 2 56 -4 31 -17 33 -6 4 26 -22 23
-28 26 -35 14 -8 -12 -10 -10 -10 8 0 17 -6 22 -27 22 -14 0 -34 7 -44 15 -12
12 -46 17 -135 19 -66 2 -127 7 -137 11 -9 4 -30 4 -45 0 -15 -3 -35 -7 -44
-8 -9 -1 -14 -5 -12 -9 3 -4 -4 -8 -15 -8 -12 0 -19 5 -16 13 3 6 1 18 -4 26
-8 12 -13 12 -36 -3 -30 -20 -45 -15 -25 9 7 8 8 15 2 15 -5 0 -15 -6 -21 -14z
m64 -26 c-3 -5 -10 -10 -16 -10 -5 0 -9 5 -9 10 0 6 7 10 16 10 8 0 12 -4 9
-10z m140 -10 c15 -7 9 -9 -25 -9 -33 -1 -41 2 -30 9 18 12 28 12 55 0z m-115
-24 c0 -11 -19 -15 -25 -6 -3 5 1 10 9 10 9 0 16 -2 16 -4z"/>
<path d="M4440 5740 c-6 -11 -15 -18 -21 -15 -10 7 -69 -31 -68 -43 3 -19 -2
-32 -12 -32 -5 0 -7 5 -3 11 4 7 1 10 -7 7 -8 -3 -14 -12 -14 -20 0 -8 -6 -22
-13 -31 -11 -13 -11 -15 1 -13 8 1 21 7 28 13 8 6 30 15 49 20 22 6 35 15 34
25 -1 9 8 21 20 26 22 11 77 26 87 24 3 0 4 9 2 21 -6 31 -67 36 -83 7z m50 0
c0 -5 -5 -10 -11 -10 -5 0 -7 5 -4 10 3 6 8 10 11 10 2 0 4 -4 4 -10z"/>
<path d="M4480 5680 c13 -9 13 -11 0 -20 -11 -7 -5 -8 20 -4 19 4 37 9 40 11
8 8 -25 23 -50 23 -20 0 -22 -2 -10 -10z"/>
<path d="M4355 5590 c-3 -5 -1 -10 4 -10 6 0 11 5 11 10 0 6 -2 10 -4 10 -3 0
-8 -4 -11 -10z"/>
<path d="M4276 5575 c-15 -11 -16 -15 -5 -15 8 0 21 6 28 13 11 10 13 10 7 0
-10 -18 2 -16 20 2 14 13 13 15 -8 15 -13 0 -32 -7 -42 -15z"/>
<path d="M5760 5460 c-21 -21 -55 -92 -52 -107 2 -7 -4 -13 -13 -13 -12 0 -14
-7 -11 -27 2 -16 5 -29 6 -30 2 -2 3 -6 5 -10 1 -5 4 -15 7 -23 3 -8 11 -37
18 -65 16 -68 30 -122 46 -174 8 -25 14 -55 14 -68 0 -13 5 -23 10 -23 6 0 10
-6 10 -13 0 -18 24 -67 33 -67 4 0 7 -7 7 -15 0 -9 6 -26 14 -38 9 -13 16 -53
17 -97 3 -74 12 -103 37 -107 12 -3 13 1 17 47 1 14 3 33 3 44 1 11 7 16 16
13 27 -11 36 16 21 66 -7 25 -19 56 -26 69 -7 13 -13 32 -15 43 -2 21 -20 77
-35 107 -5 10 -6 24 -3 33 3 8 2 15 -4 15 -6 0 -8 8 -6 18 3 9 -6 33 -20 52
-38 53 -67 110 -61 119 3 5 14 7 25 4 11 -3 20 -1 20 5 0 6 8 13 18 16 10 4
28 15 39 25 25 23 77 51 96 51 10 0 14 -12 14 -40 0 -48 14 -67 62 -80 40 -11
131 -13 156 -4 20 8 45 56 45 89 0 14 4 25 8 25 29 0 72 -97 50 -111 -16 -10
16 -23 37 -16 8 4 17 2 20 -2 2 -5 21 -12 40 -15 23 -5 35 -13 35 -23 0 -9 8
-22 17 -29 10 -7 18 -20 18 -30 0 -10 8 -20 17 -22 15 -3 17 2 12 28 -6 26 -3
32 15 37 26 7 27 19 1 33 -12 7 -20 21 -20 38 0 66 -13 103 -49 137 -31 30
-40 34 -66 28 -39 -9 -76 -7 -84 4 -7 10 -240 11 -256 2 -5 -3 -22 -9 -37 -13
-15 -3 -40 -11 -55 -17 -15 -6 -41 -13 -58 -14 -16 -2 -47 -8 -67 -13 -22 -6
-38 -6 -38 -1 0 5 3 9 8 9 4 0 21 12 37 26 17 14 39 32 49 40 35 24 13 23 -51
-4 -35 -14 -65 -23 -69 -20 -3 4 2 21 11 38 27 53 0 108 -35 70z m665 -119 c3
-5 1 -12 -5 -16 -5 -3 -10 1 -10 9 0 18 6 21 15 7z m-319 -30 c5 -5 18 -11 28
-13 38 -6 15 -21 -38 -25 -46 -4 -56 -1 -65 15 -6 11 -7 22 -4 26 10 9 68 7
79 -3z"/>
<path d="M5060 5386 c0 -9 6 -16 14 -16 8 0 16 -5 18 -11 2 -7 9 -10 14 -8 6
2 -2 14 -18 27 -22 19 -28 20 -28 8z"/>
<path d="M4725 5373 c-27 -9 -80 -31 -118 -50 -37 -19 -72 -31 -79 -27 -7 4
-8 3 -4 -4 4 -7 1 -12 -8 -12 -8 0 -27 -11 -43 -24 -15 -12 -35 -26 -43 -29
-8 -3 14 -6 50 -6 42 0 72 5 84 14 10 8 23 12 27 9 5 -3 6 2 3 10 -6 17 71 66
104 66 26 0 29 -25 6 -38 -9 -5 -14 -18 -12 -33 3 -21 10 -25 53 -31 28 -3 78
-7 113 -7 59 -1 63 0 73 27 6 15 9 44 7 65 -2 21 1 37 7 37 23 0 77 -42 97
-75 16 -29 24 -34 42 -29 11 4 29 7 39 6 9 0 17 2 17 6 0 10 -38 42 -50 42 -6
0 -10 5 -10 11 0 5 -5 7 -10 4 -6 -4 -27 6 -48 22 -20 16 -50 35 -66 42 -46
19 -173 22 -231 4z m85 -55 c48 -15 50 -23 9 -32 -59 -12 -89 -8 -89 12 0 35
17 39 80 20z"/>
<path d="M4452 5309 c-36 -32 -41 -49 -7 -21 21 18 50 52 44 52 -2 0 -19 -14
-37 -31z"/>
<path d="M4868 5043 c7 -3 16 -2 19 1 4 3 -2 6 -13 5 -11 0 -14 -3 -6 -6z"/>
<path d="M4788 5033 c12 -2 30 -2 40 0 9 3 -1 5 -23 4 -22 0 -30 -2 -17 -4z"/>
<path d="M6060 5000 c0 -5 5 -10 10 -10 6 0 10 5 10 10 0 6 -4 10 -10 10 -5 0
-10 -4 -10 -10z"/>
<path d="M3305 4930 c-10 -16 4 -62 15 -55 13 8 13 52 1 60 -5 3 -13 0 -16 -5z"/>
<path d="M6020 4547 c0 -15 -46 -60 -73 -70 -11 -4 -17 -1 -17 8 0 8 -9 15
-20 15 -11 0 -20 5 -20 10 0 16 -33 11 -56 -8 -30 -25 -74 -89 -67 -96 4 -3
-1 -6 -11 -6 -9 0 -14 -4 -11 -10 3 -5 -1 -10 -9 -10 -9 0 -16 -4 -16 -8 0
-16 -51 -33 -113 -37 -34 -3 -63 -9 -66 -14 -11 -16 -78 -30 -90 -18 -12 12
-15 -2 -3 -19 4 -7 47 -14 102 -17 114 -7 160 -16 160 -31 0 -6 4 -6 9 2 10
16 22 14 37 -6 7 -10 28 -16 52 -16 22 -1 38 -5 35 -9 -2 -4 7 -6 21 -3 14 3
28 0 32 -5 4 -6 11 -6 19 1 9 8 15 8 20 0 3 -6 10 -8 15 -5 5 3 14 -3 19 -14
6 -11 24 -22 40 -26 33 -7 56 -29 47 -44 -4 -6 -38 -8 -81 -6 -61 4 -76 2 -83
-12 -7 -11 -15 -14 -28 -8 -11 5 -23 7 -29 6 -13 -3 -172 -1 -212 3 -18 1 -33
-1 -33 -6 0 -5 -4 -7 -9 -4 -4 3 -23 1 -41 -4 -23 -7 -53 -5 -104 7 -55 12
-124 15 -311 14 -305 -2 -371 -6 -401 -26 -36 -23 -36 -25 32 -102 44 -52 60
-54 60 -9 0 51 21 83 58 90 17 3 63 11 101 17 39 7 99 13 135 13 104 1 311
-14 355 -25 49 -13 156 -27 250 -33 39 -3 83 -10 98 -15 26 -10 45 -50 32 -70
-3 -7 0 -8 9 -5 9 3 13 10 10 15 -10 17 15 36 41 31 35 -6 47 -65 30 -145 -9
-47 -26 -55 -61 -28 l-26 21 -20 -26 c-17 -20 -28 -25 -59 -23 -30 3 -45 -3
-71 -26 l-33 -30 45 -5 c25 -3 46 -2 48 1 5 10 61 -3 73 -17 15 -18 -11 -20
-29 -2 -9 10 -16 8 -29 -5 -16 -16 -16 -17 1 -17 12 0 16 -5 12 -15 -3 -8 -1
-15 5 -15 6 0 7 -5 3 -11 -4 -7 0 -9 14 -5 12 4 26 1 36 -9 15 -15 17 -14 26
10 5 14 14 23 20 20 5 -3 10 1 10 9 0 9 7 16 16 16 9 0 18 9 21 20 4 15 11 19
25 14 14 -4 18 -2 14 5 -4 6 -1 11 6 11 11 0 11 2 0 9 -10 6 -5 16 20 43 51
55 113 129 117 142 2 6 15 22 29 35 32 29 36 103 7 125 -11 8 -15 18 -10 26 6
10 11 9 21 -5 8 -10 17 -15 21 -11 4 4 1 11 -6 15 -7 5 -15 26 -17 47 -3 24
-13 46 -25 57 -12 9 -16 17 -10 17 6 0 11 8 11 17 0 13 -3 14 -12 5 -20 -20
-28 -14 -56 46 -28 61 -32 81 -21 97 3 6 9 39 13 74 5 54 3 66 -12 77 -22 17
-32 17 -32 1z m6 -622 c8 -21 -15 -75 -32 -75 -23 0 -29 48 -9 70 22 24 34 25
41 5z m-59 -191 c-3 -3 -12 -4 -19 -1 -8 3 -5 6 6 6 11 1 17 -2 13 -5z"/>
<path d="M4723 4480 c-12 -10 -33 -22 -47 -26 -28 -7 -144 -108 -135 -118 3
-3 15 3 27 14 12 11 55 42 97 69 41 26 72 51 68 54 -3 4 6 7 20 7 15 0 27 5
27 10 0 17 -35 11 -57 -10z"/>
<path d="M7067 4437 c-5 -37 -1 -48 10 -21 3 10 10 21 14 24 4 3 1 10 -6 17
-10 9 -14 5 -18 -20z"/>
<path d="M5276 4441 c-4 -6 9 -13 31 -17 40 -7 73 -29 73 -49 0 -9 10 -10 33
-6 43 9 39 22 -14 48 -54 27 -114 39 -123 24z"/>
<path d="M6838 4433 c7 -3 16 -2 19 1 4 3 -2 6 -13 5 -11 0 -14 -3 -6 -6z"/>
<path d="M7010 4410 c0 -5 5 -10 10 -10 6 0 10 5 10 10 0 6 -4 10 -10 10 -5 0
-10 -4 -10 -10z"/>
<path d="M3110 4346 c5 -13 6 -27 3 -30 -4 -3 29 -5 73 -4 72 1 74 2 29 7
l-50 7 58 8 c31 5 57 12 57 16 0 4 -36 7 -80 6 -44 0 -80 2 -80 7 0 4 -4 7
-10 7 -6 0 -6 -9 0 -24z"/>
<path d="M2470 4335 c5 -12 6 -26 3 -29 -4 -3 14 -6 38 -7 24 -1 55 -4 69 -8
24 -7 24 -7 -9 -14 -33 -7 -33 -8 -15 -21 10 -8 22 -12 26 -10 5 3 8 -18 8
-45 0 -28 -4 -51 -10 -51 -5 0 -10 -7 -10 -16 0 -11 8 -14 28 -12 26 3 27 5
30 78 2 43 9 84 18 97 24 38 18 53 -23 53 -21 1 -66 3 -100 5 -61 3 -62 3 -53
-20z"/>
<path d="M2987 4353 c-57 -5 -61 -28 -4 -27 20 0 34 -3 31 -8 -3 -4 2 -8 10
-8 8 0 17 -8 19 -17 3 -10 5 1 6 25 0 23 -2 41 -6 40 -5 -1 -30 -3 -56 -5z"/>
<path d="M5420 4280 c0 -5 5 -10 10 -10 6 0 10 5 10 10 0 6 -4 10 -10 10 -5 0
-10 -4 -10 -10z"/>
<path d="M6300 4192 c0 -5 7 -15 15 -22 8 -7 15 -8 15 -2 0 5 -7 15 -15 22 -8
7 -15 8 -15 2z"/>
<path d="M6170 4173 c0 -4 5 -15 10 -23 8 -13 10 -13 10 2 0 9 -4 20 -10 23
-5 3 -10 3 -10 -2z"/>
<path d="M6220 4131 c0 -6 4 -13 10 -16 6 -3 7 1 4 9 -7 18 -14 21 -14 7z"/>
<path d="M2488 4113 c-13 -3 -18 -15 -18 -43 0 -57 7 -67 39 -62 24 3 30 9 33
37 7 62 -8 80 -54 68z"/>
<path d="M2578 4103 c7 -3 16 -2 19 1 4 3 -2 6 -13 5 -11 0 -14 -3 -6 -6z"/>
<path d="M3110 4017 c0 -25 3 -59 6 -76 l7 -31 111 0 c61 0 117 4 125 9 20 13
4 31 -27 31 -29 0 -52 34 -52 76 0 25 -15 29 -108 33 l-62 2 0 -44z"/>
<path d="M3820 4040 c-8 -5 -17 -7 -20 -5 -7 5 -11 -17 -13 -90 -2 -54 0 -61
21 -70 12 -5 22 -18 22 -27 0 -14 6 -16 33 -11 17 3 33 6 33 7 1 1 -9 33 -22
71 -13 39 -24 82 -24 97 0 31 -10 40 -30 28z"/>
<path d="M4996 3841 c-3 -5 0 -11 8 -14 15 -6 26 1 26 15 0 11 -27 10 -34 -1z"/>
<path d="M5113 3810 l-32 -17 23 -11 c19 -8 26 -7 40 10 25 29 7 39 -31 18z"/>
<path d="M4710 3050 c0 -5 5 -10 10 -10 6 0 10 5 10 10 0 6 -4 10 -10 10 -5 0
-10 -4 -10 -10z"/>
<path d="M5904 2999 c-3 -6 -1 -16 5 -22 8 -8 11 -5 11 11 0 24 -5 28 -16 11z"/>
<path d="M5867 2939 c4 -13 8 -18 11 -10 2 7 -1 18 -6 23 -8 8 -9 4 -5 -13z"/>
<path d="M3658 2873 c7 -3 16 -2 19 1 4 3 -2 6 -13 5 -11 0 -14 -3 -6 -6z"/>
<path d="M4850 2740 c0 -5 7 -10 15 -10 8 0 15 5 15 10 0 6 -7 10 -15 10 -8 0
-15 -4 -15 -10z"/>
<path d="M4902 2708 c6 -18 28 -21 28 -4 0 9 -7 16 -16 16 -9 0 -14 -5 -12
-12z"/>
<path d="M4952 2680 c0 -14 2 -19 5 -12 2 6 2 18 0 25 -3 6 -5 1 -5 -13z"/>
<path d="M5807 2446 c-4 -10 -1 -13 8 -9 8 3 12 9 9 14 -7 12 -11 11 -17 -5z"/>
<path d="M7605 6280 c-4 -16 -11 -30 -15 -30 -5 0 -7 6 -5 13 4 9 -9 12 -47
12 -51 0 -53 -1 -54 -27 -1 -16 4 -28 11 -28 7 0 16 -8 19 -17 6 -15 10 -13
33 11 16 18 32 26 44 23 14 -4 19 0 19 17 0 12 5 27 11 33 7 7 7 13 1 17 -6 3
-13 -7 -17 -24z m-49 -29 c-3 -5 -14 -11 -25 -14 -14 -3 -18 -1 -14 9 3 8 14
14 25 14 10 0 17 -4 14 -9z"/>
<path d="M7570 6190 c0 -5 7 -10 16 -10 8 0 12 -4 9 -10 -9 -15 4 -12 21 4 9
9 10 17 4 21 -5 3 -10 1 -10 -5 0 -8 -6 -8 -20 0 -14 7 -20 7 -20 0z"/>
<path d="M7605 5991 c3 -5 -7 -12 -22 -14 -16 -2 -5 -5 25 -6 53 -1 70 12 30
23 -32 8 -40 7 -33 -3z"/>
<path d="M6775 6100 c-4 -6 3 -10 14 -10 25 0 27 6 6 13 -8 4 -17 2 -20 -3z"/>
<path d="M7330 5990 c0 -5 5 -10 10 -10 6 0 10 5 10 10 0 6 -4 10 -10 10 -5 0
-10 -4 -10 -10z"/>
<path d="M7315 5940 c3 -5 11 -10 16 -10 6 0 7 5 4 10 -3 6 -11 10 -16 10 -6
0 -7 -4 -4 -10z"/>
<path d="M6908 5953 c7 -3 16 -2 19 1 4 3 -2 6 -13 5 -11 0 -14 -3 -6 -6z"/>
<path d="M6980 5855 c0 -9 9 -15 25 -15 16 0 25 6 25 16 0 14 -3 14 -15 4 -10
-9 -15 -9 -15 -1 0 6 -4 11 -10 11 -5 0 -10 -7 -10 -15z"/>
<path d="M6945 5850 c-3 -5 -1 -10 4 -10 6 0 11 5 11 10 0 6 -2 10 -4 10 -3 0
-8 -4 -11 -10z"/>
<path d="M7697 5793 c-12 -11 -8 -23 8 -23 8 0 15 7 15 15 0 16 -12 20 -23 8z"/>
<path d="M2033 5483 c9 -2 23 -2 30 0 6 3 -1 5 -18 5 -16 0 -22 -2 -12 -5z"/>
<path d="M2180 5472 c0 -13 7 -18 21 -18 12 1 24 -4 26 -10 6 -17 -29 -27 -39
-12 -5 8 -8 0 -8 -22 0 -19 4 -30 8 -24 4 7 16 13 27 15 23 5 34 54 16 72 -19
19 -51 19 -51 -1z"/>
<path d="M1929 5469 c-11 -7 -9 -9 8 -9 12 0 24 -6 26 -12 4 -8 6 -7 6 3 1 21
-21 30 -40 18z"/>
<path d="M1955 5420 c-3 -5 -1 -10 4 -10 6 0 11 5 11 10 0 6 -2 10 -4 10 -3 0
-8 -4 -11 -10z"/>
<path d="M1925 5360 c3 -5 15 -10 26 -10 10 0 19 5 19 10 0 6 -12 10 -26 10
-14 0 -23 -4 -19 -10z"/>
<path d="M7055 5260 c3 -5 8 -10 11 -10 2 0 4 5 4 10 0 6 -5 10 -11 10 -5 0
-7 -4 -4 -10z"/>
<path d="M8068 5093 c12 -2 32 -2 45 0 12 2 2 4 -23 4 -25 0 -35 -2 -22 -4z"/>
<path d="M7020 5090 c0 -5 10 -10 23 -10 18 0 19 2 7 10 -19 13 -30 13 -30 0z"/>
<path d="M7135 5080 c-3 -5 -1 -10 4 -10 6 0 11 5 11 10 0 6 -2 10 -4 10 -3 0
-8 -4 -11 -10z"/>
<path d="M7174 4844 c3 -9 6 -20 6 -25 0 -5 9 -9 19 -9 11 0 21 -4 23 -10 2
-6 8 -6 18 0 13 8 12 10 -3 10 -10 0 -15 5 -12 10 3 6 -1 10 -10 10 -8 0 -18
7 -21 15 -4 8 -11 15 -16 15 -6 0 -7 -7 -4 -16z"/>
<path d="M1561 4432 c-1 -66 19 -67 24 -2 2 26 0 39 -5 31 -6 -11 -9 -10 -13
5 -2 10 -5 -5 -6 -34z"/>
<path d="M1640 3820 c-12 -23 -13 -22 18 -25 24 -2 30 10 10 18 -8 3 -6 6 5 6
24 1 22 21 -3 21 -10 0 -24 -9 -30 -20z"/>
<path d="M1535 3740 c-3 -5 -1 -10 4 -10 6 0 11 5 11 10 0 6 -2 10 -4 10 -3 0
-8 -4 -11 -10z"/>
<path d="M816 4723 c-6 -14 -5 -15 5 -6 7 7 10 15 7 18 -3 3 -9 -2 -12 -12z"/>
<path d="M430 3750 c0 -19 3 -21 12 -12 9 9 9 15 0 24 -9 9 -12 7 -12 -12z"/>
<path d="M1530 4077 c0 -10 8 -17 18 -17 9 0 13 4 7 8 -5 4 -13 11 -17 16 -5
5 -8 2 -8 -7z"/>
<path d="M1788 3532 c-56 -3 -58 -4 -58 -31 0 -28 1 -28 42 -21 53 10 58 7 59
-33 l2 -32 6 35 c8 49 35 47 39 -2 2 -21 8 -38 13 -38 5 0 9 16 7 35 -2 39 4
50 27 42 10 -4 15 -19 15 -43 0 -21 3 -34 7 -31 3 4 7 34 7 67 l1 61 -55 -3
c-30 -2 -81 -4 -112 -6z"/>
<path d="M7175 3250 c3 -5 19 -10 35 -10 16 0 32 5 35 10 4 6 -10 10 -35 10
-25 0 -39 -4 -35 -10z"/>
<path d="M7320 3220 c20 -13 50 -13 50 0 0 6 -15 10 -32 10 -25 0 -29 -3 -18
-10z"/>
<path d="M7602 2785 c0 -16 2 -22 5 -12 2 9 2 23 0 30 -3 6 -5 -1 -5 -18z"/>
<path d="M1255 400 c-3 -5 -1 -10 4 -10 6 0 11 5 11 10 0 6 -2 10 -4 10 -3 0
-8 -4 -11 -10z"/>
<path d="M1250 330 c0 -5 5 -10 11 -10 5 0 7 5 4 10 -3 6 -8 10 -11 10 -2 0
-4 -4 -4 -10z"/>
<path d="M1284 323 c-3 -13 -14 -23 -23 -24 -11 0 -10 -3 6 -9 15 -6 20 -15
16 -29 -3 -12 -1 -21 6 -21 10 0 16 22 12 44 -1 5 3 12 8 16 7 4 6 13 -4 26
-14 19 -15 19 -21 -3z"/>
<path d="M8210 6551 c0 -10 19 -25 25 -20 1 2 -3 10 -11 17 -8 7 -14 8 -14 3z"/>
<path d="M8370 6431 c0 -5 9 -7 20 -4 11 3 20 7 20 9 0 2 -9 4 -20 4 -11 0
-20 -4 -20 -9z"/>
<path d="M8330 6405 c0 -8 4 -15 10 -15 5 0 7 7 4 15 -4 8 -8 15 -10 15 -2 0
-4 -7 -4 -15z"/>
<path d="M8215 6399 c-10 -15 3 -25 16 -12 7 7 7 13 1 17 -6 3 -14 1 -17 -5z"/>
<path d="M8102 6363 c-6 -2 -9 -9 -6 -14 4 -6 10 -6 17 0 7 5 23 11 37 14 22
4 22 4 -5 5 -16 0 -36 -2 -43 -5z"/>
<path d="M7938 6333 c7 -3 16 -2 19 1 4 3 -2 6 -13 5 -11 0 -14 -3 -6 -6z"/>
<path d="M8000 6321 c0 -6 -15 -12 -32 -14 l-33 -4 31 -1 c18 -1 37 5 44 13 9
10 9 15 1 15 -6 0 -11 -4 -11 -9z"/>
<path d="M8370 6319 c0 -5 5 -7 10 -4 6 3 10 8 10 11 0 2 -4 4 -10 4 -5 0 -10
-5 -10 -11z"/>
<path d="M8300 6300 c0 -5 5 -10 10 -10 6 0 10 5 10 10 0 6 -4 10 -10 10 -5 0
-10 -4 -10 -10z"/>
<path d="M8335 6300 c-3 -5 1 -10 9 -10 9 0 16 5 16 10 0 6 -4 10 -9 10 -6 0
-13 -4 -16 -10z"/>
<path d="M7878 6223 c7 -3 16 -2 19 1 4 3 -2 6 -13 5 -11 0 -14 -3 -6 -6z"/>
<path d="M8331 5674 c-11 -13 -10 -16 8 -21 12 -3 21 -9 21 -13 0 -13 35 -21
54 -14 26 10 18 23 -19 30 -20 3 -35 12 -35 20 0 18 -11 17 -29 -2z"/>
<path d="M8190 5451 c0 -5 5 -13 10 -16 6 -3 10 -2 10 4 0 5 -4 13 -10 16 -5
3 -10 2 -10 -4z"/>
<path d="M7901 5344 c0 -11 3 -14 6 -6 3 7 2 16 -1 19 -3 4 -6 -2 -5 -13z"/>
<path d="M7975 4840 c3 -5 18 -10 32 -10 32 0 28 5 -10 14 -19 4 -26 3 -22 -4z"/>
<path d="M8160 4846 c0 -9 39 -13 51 -5 10 6 4 9 -18 9 -18 0 -33 -2 -33 -4z"/>
<path d="M6896 2437 c3 -10 9 -15 12 -12 3 3 0 11 -7 18 -10 9 -11 8 -5 -6z"/>
<path d="M8392 2406 c10 -7 22 -24 27 -37 9 -23 10 -23 10 -2 1 35 -10 53 -33
53 -19 -1 -20 -2 -4 -14z"/>
<path d="M8423 2260 c0 -25 2 -35 4 -22 2 12 2 32 0 45 -2 12 -4 2 -4 -23z"/>
<path d="M8010 2128 c0 -17 3 -28 7 -25 9 10 10 57 1 57 -4 0 -8 -14 -8 -32z"/>
<path d="M707 700 c-3 -11 -1 -20 4 -20 5 0 9 2 9 4 0 2 3 11 6 20 3 9 2 16
-4 16 -5 0 -12 -9 -15 -20z"/>
<path d="M735 620 c4 -6 11 -8 16 -5 14 9 11 15 -7 15 -8 0 -12 -5 -9 -10z"/>
<path d="M750 569 c0 -5 5 -7 10 -4 6 3 10 8 10 11 0 2 -4 4 -10 4 -5 0 -10
-5 -10 -11z"/>
<path d="M1050 451 c0 -6 4 -13 10 -16 6 -3 7 1 4 9 -7 18 -14 21 -14 7z"/>
<path d="M646 395 c-15 -8 -32 -13 -36 -10 -12 8 -21 -11 -14 -29 7 -18 39
-22 49 -6 3 6 19 10 36 10 16 0 29 4 29 9 0 5 3 18 6 28 4 13 3 15 -4 4 -7 -9
-12 -10 -16 -2 -9 14 -15 14 -50 -4z"/>
</g>
</svg>
